<svg width="22" height="25" viewBox="0 0 22 25" fill="none" xmlns="http://www.w3.org/2000/svg">
<path d="M3.29004 10.9642V20.0342" stroke="#010101" stroke-width="1.5" stroke-linecap="round" stroke-linejoin="round"/>
<path d="M8.34082 20.0042V10.9642" stroke="#010101" stroke-width="1.5" stroke-linecap="round" stroke-linejoin="round"/>
<path d="M13.3916 10.9642V20.0042" stroke="#010101" stroke-width="1.5" stroke-linecap="round" stroke-linejoin="round"/>
<path d="M18.4307 20.0342V10.9642" stroke="#010101" stroke-width="1.5" stroke-linecap="round" stroke-linejoin="round"/>
<path d="M20.3305 7.26432L13.6905 2.62432C12.8536 2.04368 11.8592 1.73254 10.8405 1.73254C9.82188 1.73254 8.82752 2.04368 7.99054 2.62432L1.33054 7.26432C1.15596 7.39569 1.01506 7.56663 0.919444 7.76308C0.823826 7.95953 0.776221 8.17588 0.780544 8.39432V9.57432C0.779224 9.75639 0.813944 9.93691 0.882705 10.1055C0.951466 10.2741 1.05291 10.4274 1.18118 10.5566C1.30946 10.6858 1.46203 10.7883 1.63012 10.8583C1.7982 10.9283 1.97848 10.9643 2.16054 10.9643H19.5705C19.7526 10.9643 19.9329 10.9283 20.101 10.8583C20.2691 10.7883 20.4216 10.6858 20.5499 10.5566C20.6782 10.4274 20.7796 10.2741 20.8484 10.1055C20.9171 9.93691 20.9519 9.75639 20.9505 9.57432V8.39432C20.947 8.16973 20.8886 7.94941 20.7806 7.75249C20.6725 7.55557 20.518 7.38799 20.3305 7.26432Z" stroke="#010101" stroke-width="1.5" stroke-linecap="round" stroke-linejoin="round"/>
<path d="M2.62223 23.7243H19.1122C20.9522 23.7243 20.9522 22.8043 20.9522 21.8843C20.9522 20.0343 20.0322 20.0343 19.1122 20.0343H2.62223C1.70223 20.0343 0.782227 20.0343 0.782227 21.8843C0.782227 23.7243 1.70223 23.7243 2.62223 23.7243Z" stroke="#010101" stroke-width="1.5" stroke-linecap="round" stroke-linejoin="round"/>
</svg>
