<svg width="267" height="266" viewBox="0 0 267 266" fill="none" xmlns="http://www.w3.org/2000/svg">
<rect x="0.25" width="266" height="266" rx="10" fill="#FCFBFF"/>
<rect x="24.0889" y="23" width="36.2406" height="36.2406" stroke="#23303B" stroke-width="4"/>
<rect x="29.957" y="28.8682" width="24.5038" height="24.5038" fill="#C4C4C4" stroke="#23303B" stroke-width="4"/>
<rect x="212.717" y="211.629" width="24.5038" height="24.5038" fill="#C4C4C4" stroke="#23303B" stroke-width="4"/>
<rect x="35.8252" y="216.658" width="13.6053" height="13.6053" fill="#C4C4C4" stroke="#23303B" stroke-width="4"/>
<rect x="213.231" y="29.3838" width="24.312" height="24.312" fill="#C4C4C4"/>
<rect x="24.0889" y="205.759" width="36.2406" height="36.2406" stroke="#23303B" stroke-width="4"/>
<rect x="206.848" y="205.759" width="36.2406" height="36.2406" stroke="#23303B" stroke-width="4"/>
<rect x="206.848" y="23" width="36.2406" height="36.2406" stroke="#23303B" stroke-width="4"/>
<circle cx="71.1313" cy="33.1558" r="6.28759" fill="#23303B"/>
<circle cx="86.2222" cy="33.1558" r="6.28759" fill="#23303B"/>
<circle cx="101.312" cy="33.1558" r="6.28759" fill="#23303B"/>
<circle cx="116.403" cy="33.1558" r="6.28759" fill="#23303B"/>
<circle cx="131.493" cy="33.1558" r="6.28759" fill="#23303B"/>
<circle cx="146.583" cy="33.1558" r="6.28759" fill="#23303B"/>
<circle cx="161.673" cy="33.1558" r="6.28759" fill="#23303B"/>
<circle cx="176.763" cy="33.1558" r="6.28759" fill="#23303B"/>
<circle cx="191.854" cy="49.0847" r="6.28759" fill="#23303B"/>
<circle cx="191.854" cy="65.0135" r="6.28759" fill="#23303B"/>
<circle cx="206.944" cy="71.7206" r="6.28759" fill="#23303B"/>
<circle cx="222.873" cy="71.7206" r="6.28759" fill="#23303B"/>
<circle cx="232.932" cy="84.295" r="6.28759" fill="#23303B"/>
<circle cx="232.932" cy="101.062" r="6.28759" fill="#23303B"/>
<circle cx="233.771" cy="117.829" r="6.28759" fill="#23303B"/>
<circle cx="233.771" cy="151.363" r="6.28759" fill="#23303B"/>
<circle cx="233.771" cy="168.13" r="6.28759" fill="#23303B"/>
<circle cx="233.771" cy="184.896" r="6.28759" fill="#23303B"/>
<circle cx="222.873" cy="195.795" r="6.28759" fill="#23303B"/>
<circle cx="206.944" cy="195.795" r="6.28759" fill="#23303B"/>
<circle cx="191.854" cy="210.047" r="6.28759" fill="#23303B"/>
<circle cx="191.854" cy="225.976" r="6.28759" fill="#23303B"/>
<circle cx="179.279" cy="232.682" r="6.28759" fill="#23303B"/>
<circle cx="161.673" cy="232.682" r="6.28759" fill="#23303B"/>
<circle cx="126.462" cy="232.682" r="6.28759" fill="#23303B"/>
<circle cx="108.858" cy="232.682" r="6.28759" fill="#23303B"/>
<circle cx="91.2524" cy="232.682" r="6.28759" fill="#23303B"/>
<circle cx="73.647" cy="232.682" r="6.28759" fill="#23303B"/>
<circle cx="73.647" cy="215.916" r="6.28759" fill="#23303B"/>
<circle cx="73.647" cy="199.148" r="6.28759" fill="#23303B"/>
<circle cx="57.7183" cy="193.28" r="6.28759" fill="#23303B"/>
<circle cx="40.1128" cy="195.795" r="6.28759" fill="#23303B"/>
<circle cx="33.4067" cy="181.543" r="6.28759" fill="#23303B"/>
<circle cx="33.4067" cy="138.788" r="6.28759" fill="#23303B"/>
<circle cx="33.4067" cy="124.536" r="6.28759" fill="#23303B"/>
<circle cx="33.4067" cy="110.283" r="6.28759" fill="#23303B"/>
<circle cx="33.4067" cy="96.0323" r="6.28759" fill="#23303B"/>
<circle cx="33.4067" cy="81.7802" r="6.28759" fill="#23303B"/>
<circle cx="48.4966" cy="96.0323" r="6.28759" fill="#23303B"/>
<circle cx="48.4966" cy="124.536" r="6.28759" fill="#23303B"/>
<circle cx="48.4966" cy="138.788" r="6.28759" fill="#23303B"/>
<circle cx="48.4966" cy="153.04" r="6.28759" fill="#23303B"/>
<circle cx="48.4966" cy="167.292" r="6.28759" fill="#23303B"/>
<circle cx="48.4966" cy="181.543" r="6.28759" fill="#23303B"/>
<circle cx="63.5864" cy="81.7802" r="6.28759" fill="#23303B"/>
<circle cx="63.5864" cy="110.283" r="6.28759" fill="#23303B"/>
<circle cx="63.5864" cy="124.536" r="6.28759" fill="#23303B"/>
<circle cx="63.5864" cy="138.788" r="6.28759" fill="#23303B"/>
<circle cx="63.5864" cy="153.04" r="6.28759" fill="#23303B"/>
<circle cx="63.5864" cy="167.292" r="6.28759" fill="#23303B"/>
<circle cx="63.5864" cy="181.543" r="6.28759" fill="#23303B"/>
<circle cx="78.6772" cy="81.7802" r="6.28759" fill="#23303B"/>
<circle cx="78.6772" cy="96.0323" r="6.28759" fill="#23303B"/>
<circle cx="78.6772" cy="110.283" r="6.28759" fill="#23303B"/>
<circle cx="78.6772" cy="124.536" r="6.28759" fill="#23303B"/>
<circle cx="78.6772" cy="138.788" r="6.28759" fill="#23303B"/>
<circle cx="78.6772" cy="153.04" r="6.28759" fill="#23303B"/>
<circle cx="78.6772" cy="67.5282" r="6.28759" fill="#23303B"/>
<circle cx="93.7671" cy="81.7802" r="6.28759" fill="#23303B"/>
<circle cx="93.7671" cy="96.0323" r="6.28759" fill="#23303B"/>
<circle cx="93.7671" cy="110.283" r="6.28759" fill="#23303B"/>
<circle cx="93.7671" cy="138.788" r="6.28759" fill="#23303B"/>
<circle cx="93.7671" cy="167.292" r="6.28759" fill="#23303B"/>
<circle cx="93.7671" cy="181.543" r="6.28759" fill="#23303B"/>
<circle cx="93.7671" cy="195.795" r="6.28759" fill="#23303B"/>
<circle cx="93.7671" cy="210.047" r="6.28759" fill="#23303B"/>
<circle cx="101.312" cy="49.0847" r="6.28759" fill="#23303B"/>
<circle cx="108.858" cy="81.7802" r="6.28759" fill="#23303B"/>
<circle cx="108.858" cy="96.0323" r="6.28759" fill="#23303B"/>
<circle cx="108.858" cy="110.283" r="6.28759" fill="#23303B"/>
<circle cx="108.858" cy="124.536" r="6.28759" fill="#23303B"/>
<circle cx="108.858" cy="138.788" r="6.28759" fill="#23303B"/>
<circle cx="108.858" cy="153.04" r="6.28759" fill="#23303B"/>
<circle cx="108.858" cy="167.292" r="6.28759" fill="#23303B"/>
<circle cx="108.858" cy="181.543" r="6.28759" fill="#23303B"/>
<circle cx="108.858" cy="195.795" r="6.28759" fill="#23303B"/>
<circle cx="108.858" cy="210.047" r="6.28759" fill="#23303B"/>
<circle cx="108.858" cy="67.5282" r="6.28759" fill="#23303B"/>
<circle cx="116.403" cy="49.0847" r="6.28759" fill="#23303B"/>
<circle cx="123.948" cy="81.7802" r="6.28759" fill="#23303B"/>
<circle cx="123.948" cy="110.283" r="6.28759" fill="#23303B"/>
<circle cx="123.948" cy="124.536" r="6.28759" fill="#23303B"/>
<circle cx="123.948" cy="138.788" r="6.28759" fill="#23303B"/>
<circle cx="123.948" cy="153.04" r="6.28759" fill="#23303B"/>
<circle cx="123.948" cy="181.543" r="6.28759" fill="#23303B"/>
<circle cx="123.948" cy="195.795" r="6.28759" fill="#23303B"/>
<circle cx="123.948" cy="210.047" r="6.28759" fill="#23303B"/>
<circle cx="123.948" cy="67.5282" r="6.28759" fill="#23303B"/>
<circle cx="131.493" cy="49.0847" r="6.28759" fill="#23303B"/>
<circle cx="139.038" cy="81.7802" r="6.28759" fill="#23303B"/>
<circle cx="139.038" cy="96.0323" r="6.28759" fill="#23303B"/>
<circle cx="139.038" cy="110.283" r="6.28759" fill="#23303B"/>
<circle cx="139.038" cy="124.536" r="6.28759" fill="#23303B"/>
<circle cx="139.038" cy="138.788" r="6.28759" fill="#23303B"/>
<circle cx="139.038" cy="153.04" r="6.28759" fill="#23303B"/>
<circle cx="139.038" cy="167.292" r="6.28759" fill="#23303B"/>
<circle cx="139.038" cy="181.543" r="6.28759" fill="#23303B"/>
<circle cx="139.038" cy="67.5282" r="6.28759" fill="#23303B"/>
<circle cx="146.583" cy="49.0847" r="6.28759" fill="#23303B"/>
<circle cx="154.128" cy="81.7802" r="6.28759" fill="#23303B"/>
<circle cx="154.128" cy="110.283" r="6.28759" fill="#23303B"/>
<circle cx="154.128" cy="124.536" r="6.28759" fill="#23303B"/>
<circle cx="154.128" cy="138.788" r="6.28759" fill="#23303B"/>
<circle cx="154.128" cy="195.795" r="6.28759" fill="#23303B"/>
<circle cx="154.128" cy="210.047" r="6.28759" fill="#23303B"/>
<circle cx="169.218" cy="81.7802" r="6.28759" fill="#23303B"/>
<circle cx="169.218" cy="96.0323" r="6.28759" fill="#23303B"/>
<circle cx="169.218" cy="110.283" r="6.28759" fill="#23303B"/>
<circle cx="169.218" cy="138.788" r="6.28759" fill="#23303B"/>
<circle cx="169.218" cy="153.04" r="6.28759" fill="#23303B"/>
<circle cx="169.218" cy="167.292" r="6.28759" fill="#23303B"/>
<circle cx="169.218" cy="181.543" r="6.28759" fill="#23303B"/>
<circle cx="169.218" cy="195.795" r="6.28759" fill="#23303B"/>
<circle cx="169.218" cy="210.047" r="6.28759" fill="#23303B"/>
<circle cx="169.218" cy="67.5282" r="6.28759" fill="#23303B"/>
<circle cx="176.763" cy="49.0847" r="6.28759" fill="#23303B"/>
<circle cx="184.308" cy="81.7802" r="6.28759" fill="#23303B"/>
<circle cx="184.308" cy="96.0323" r="6.28759" fill="#23303B"/>
<circle cx="198.561" cy="110.283" r="6.28759" fill="#23303B"/>
<circle cx="212.812" cy="110.283" r="6.28759" fill="#23303B"/>
<circle cx="184.308" cy="124.536" r="6.28759" fill="#23303B"/>
<circle cx="198.561" cy="124.536" r="6.28759" fill="#23303B"/>
<circle cx="212.812" cy="124.536" r="6.28759" fill="#23303B"/>
<circle cx="184.308" cy="138.788" r="6.28759" fill="#23303B"/>
<circle cx="198.561" cy="138.788" r="6.28759" fill="#23303B"/>
<circle cx="212.812" cy="138.788" r="6.28759" fill="#23303B"/>
<circle cx="184.308" cy="153.04" r="6.28759" fill="#23303B"/>
<circle cx="198.561" cy="153.04" r="6.28759" fill="#23303B"/>
<circle cx="212.812" cy="153.04" r="6.28759" fill="#23303B"/>
<circle cx="184.308" cy="167.292" r="6.28759" fill="#23303B"/>
<circle cx="198.561" cy="167.292" r="6.28759" fill="#23303B"/>
<circle cx="184.308" cy="181.543" r="6.28759" fill="#23303B"/>
<circle cx="198.561" cy="181.543" r="6.28759" fill="#23303B"/>
<circle cx="212.812" cy="181.543" r="6.28759" fill="#23303B"/>
<circle cx="184.308" cy="195.795" r="6.28759" fill="#23303B"/>
<circle cx="217.842" cy="93.5176" r="6.28759" fill="#23303B"/>
<circle cx="33.4067" cy="67.5282" r="6.28759" fill="#23303B"/>
<circle cx="48.4966" cy="67.5282" r="6.28759" fill="#23303B"/>
<circle cx="63.5864" cy="67.5282" r="6.28759" fill="#23303B"/>
<circle cx="71.1313" cy="49.0847" r="6.28759" fill="#23303B"/>
<circle cx="233.771" cy="134.596" r="6.28759" fill="#23303B"/>
<rect x="22.25" y="83.2289" width="222" height="4.17293" fill="url(#paint0_linear_5_12363)"/>
<rect x="244.25" y="168.357" width="222" height="80.9549" transform="rotate(180 244.25 168.357)" fill="url(#paint1_linear_5_12363)" fill-opacity="0.6"/>
<defs>
<linearGradient id="paint0_linear_5_12363" x1="259.027" y1="85.4544" x2="22.25" y2="85.4544" gradientUnits="userSpaceOnUse">
<stop offset="0.0154709" stop-color="#456EFE"/>
<stop offset="1" stop-color="#2DC688"/>
</linearGradient>
<linearGradient id="paint1_linear_5_12363" x1="481.027" y1="211.533" x2="244.25" y2="211.533" gradientUnits="userSpaceOnUse">
<stop offset="0.0154709" stop-color="#456EFE" stop-opacity="0.45"/>
<stop offset="1" stop-color="#2DC688" stop-opacity="0.45"/>
</linearGradient>
</defs>
</svg>
