<svg width="24" height="24" viewBox="0 0 24 24" fill="none" xmlns="http://www.w3.org/2000/svg">
<path d="M17.4401 3.08438C17.4401 5.41438 13.1601 8.08438 13.1601 8.08438C13.1601 8.08438 8.88008 5.43438 8.88008 3.08438C8.87323 2.57153 9.0418 2.07173 9.35787 1.66779C9.67393 1.26386 10.1185 0.980025 10.618 0.863332C11.1174 0.746639 11.6417 0.804088 12.1041 1.02616C12.5664 1.24823 12.939 1.62159 13.1601 2.08438C13.3812 1.62159 13.7538 1.24823 14.2161 1.02616C14.6784 0.804088 15.2028 0.746639 15.7022 0.863332C16.2016 0.980025 16.6462 1.26386 16.9623 1.66779C17.2784 2.07173 17.4469 2.57153 17.4401 3.08438Z" stroke="#010101" stroke-width="1.5" stroke-linecap="round" stroke-linejoin="round"/>
<path d="M3.52058 8.77429H2.63058C1.38058 8.77429 0.850586 9.22429 0.850586 10.4643V21.0643C0.850586 22.3143 1.38058 22.7643 2.63058 22.7643H3.52058C4.77058 22.7643 5.30058 22.3143 5.30058 21.0643V10.4643C5.33058 9.22429 4.77058 8.77429 3.52058 8.77429Z" stroke="#010101" stroke-width="1.5" stroke-linecap="round" stroke-linejoin="round"/>
<path d="M5.57129 20.5242L13.2213 20.6543C14.1743 20.6651 15.0999 20.3353 15.8313 19.7243L21.9713 14.9442C22.4194 14.6018 22.7233 14.1041 22.8232 13.549C22.9231 12.9939 22.8118 12.4215 22.5113 11.9442C22.2306 11.4853 21.7955 11.1416 21.2841 10.9748C20.7727 10.808 20.2185 10.8291 19.7213 11.0342L14.9613 12.9743" stroke="#010101" stroke-width="1.5" stroke-linecap="round" stroke-linejoin="round"/>
<path d="M10.6513 16.0743L13.5713 15.2743C14.0058 15.1657 14.3862 14.9031 14.6418 14.5353C14.8975 14.1675 15.011 13.7194 14.9613 13.2743C14.9166 12.8886 14.7531 12.5264 14.4932 12.2379C14.2334 11.9494 13.8902 11.7489 13.5113 11.6643L5.57129 11.4943" stroke="#010101" stroke-width="1.5" stroke-linecap="round" stroke-linejoin="round"/>
</svg>
