<svg width="21" height="24" viewBox="0 0 21 24" fill="none" xmlns="http://www.w3.org/2000/svg">
<path d="M14.3923 7.80432H6.6123" stroke="#010101" stroke-width="1.5" stroke-linecap="round" stroke-linejoin="round"/>
<path d="M8.10254 7.80432V11.9643C8.10254 14.0543 8.31255 14.4343 10.5526 14.4143C12.7926 14.3943 13.0125 14.0243 13.0125 11.9343V7.80432" stroke="#010101" stroke-width="1.5" stroke-linecap="round" stroke-linejoin="round"/>
<path d="M9.8417 22.8542C10.0324 23.0051 10.2685 23.0872 10.5117 23.0872C10.7549 23.0872 10.991 23.0051 11.1817 22.8542C13.2817 21.2642 19.4417 16.0642 19.4117 9.99423C19.4517 8.7997 19.251 7.60932 18.8215 6.49396C18.392 5.37859 17.7425 4.36103 16.9117 3.50186C16.0808 2.64269 15.0856 1.95947 13.9852 1.49286C12.8849 1.02624 11.7019 0.785767 10.5067 0.785767C9.31148 0.785767 8.12851 1.02624 7.02816 1.49286C5.92781 1.95947 4.93257 2.64269 4.10171 3.50186C3.27085 4.36103 2.62136 5.37859 2.19186 6.49396C1.76236 7.60932 1.56164 8.7997 1.60168 9.99423C1.60168 15.9942 7.7617 21.2642 9.8417 22.8642" stroke="#010101" stroke-width="1.5" stroke-linecap="round" stroke-linejoin="round"/>
</svg>
