<svg width="24" height="24" viewBox="0 0 24 24" fill="none" xmlns="http://www.w3.org/2000/svg">
<path d="M5.09004 6.65437V19.0444C5.09004 21.9844 6.61004 22.6744 8.47004 20.5844C8.64758 20.3602 8.87653 20.1821 9.1375 20.0651C9.39846 19.9482 9.68377 19.8958 9.96925 19.9125C10.2547 19.9292 10.532 20.0144 10.7776 20.1609C11.0232 20.3075 11.2298 20.511 11.38 20.7544L12.44 22.2444C12.5958 22.5121 12.819 22.7343 13.0875 22.8887C13.356 23.0432 13.6603 23.1244 13.97 23.1244C14.2798 23.1244 14.5841 23.0432 14.8526 22.8887C15.121 22.7343 15.3443 22.5121 15.5 22.2444L16.5 20.7644C16.6514 20.521 16.8591 20.3175 17.1055 20.171C17.3519 20.0246 17.6298 19.9394 17.916 19.9228C18.2021 19.9061 18.4881 19.9584 18.7499 20.0753C19.0116 20.1922 19.2414 20.3702 19.42 20.5944C21.28 22.6844 22.8 21.9944 22.8 19.0544V6.65437C22.8 2.22437 21.8 1.11438 17.87 1.11438H2.54004" stroke="#010101" stroke-width="1.5" stroke-linecap="round" stroke-linejoin="round"/>
<path d="M2.98039 1.11438C1.29039 1.11438 0.86039 2.22437 0.86039 6.65437V9.65437C0.80307 10.3051 0.998644 10.9528 1.40648 11.4631C1.81431 11.9734 2.40306 12.3069 3.05039 12.3944H5.05039V6.64438C5.09039 2.22438 4.67039 1.11438 2.98039 1.11438Z" stroke="#010101" stroke-width="1.5" stroke-linecap="round" stroke-linejoin="round"/>
<path d="M13.8597 7.77429L11.9697 11.4843H15.9697L13.8397 15.1943" stroke="#010101" stroke-width="1.5" stroke-linecap="round" stroke-linejoin="round"/>
</svg>
