<svg width="24" height="24" viewBox="0 0 24 24" fill="none" xmlns="http://www.w3.org/2000/svg">
<path d="M15.3518 0.794312H8.75175C4.49916 0.794312 1.05176 4.24172 1.05176 8.49431V15.0943C1.05176 19.3469 4.49916 22.7943 8.75175 22.7943H15.3518C19.6044 22.7943 23.0518 19.3469 23.0518 15.0943V8.49431C23.0518 4.24172 19.6044 0.794312 15.3518 0.794312Z" stroke="#010101" stroke-width="1.5" stroke-linecap="round" stroke-linejoin="round"/>
<path d="M4.85254 11.7943H19.2525" stroke="#010101" stroke-width="1.5" stroke-linecap="round" stroke-linejoin="round"/>
<path d="M19.2532 8.39417C19.1232 5.88417 18.0032 4.76417 15.4932 4.64417" stroke="#010101" stroke-width="1.5" stroke-linecap="round" stroke-linejoin="round"/>
<path d="M4.85254 8.39417C4.98254 5.88417 6.10253 4.76417 8.61253 4.64417" stroke="#010101" stroke-width="1.5" stroke-linecap="round" stroke-linejoin="round"/>
<path d="M4.85254 15.2443C4.98254 17.7543 6.10253 18.8743 8.61253 19.0043" stroke="#010101" stroke-width="1.5" stroke-linecap="round" stroke-linejoin="round"/>
<path d="M19.2532 15.2443C19.1232 17.7543 18.0032 18.8743 15.4932 19.0043" stroke="#010101" stroke-width="1.5" stroke-linecap="round" stroke-linejoin="round"/>
</svg>
