<svg width="22" height="24" viewBox="0 0 22 24" fill="none" xmlns="http://www.w3.org/2000/svg">
<path d="M10.4313 12.9542C9.96183 12.9542 9.51162 12.7677 9.17968 12.4357C8.84774 12.1038 8.66125 11.6536 8.66125 11.1842C8.6586 10.95 8.70245 10.7177 8.79021 10.5007C8.87798 10.2836 9.00794 10.0861 9.17257 9.91963C9.33719 9.75315 9.5332 9.62099 9.74926 9.53079C9.96532 9.44059 10.1971 9.39415 10.4313 9.39417H12.4313" stroke="#010101" stroke-width="1.5" stroke-linecap="round" stroke-linejoin="round"/>
<path d="M10.4322 12.9542H11.3322C11.8016 12.9542 12.2519 13.1407 12.5838 13.4726C12.9157 13.8046 13.1022 14.2548 13.1022 14.7242C13.1022 15.1937 12.9157 15.6439 12.5838 15.9758C12.2519 16.3077 11.8016 16.4942 11.3322 16.4942H9.28223" stroke="#010101" stroke-width="1.5" stroke-linecap="round" stroke-linejoin="round"/>
<path d="M10.8623 8.26428V9.41429" stroke="#010101" stroke-width="1.5" stroke-linecap="round" stroke-linejoin="round"/>
<path d="M10.8623 16.4843V17.6343" stroke="#010101" stroke-width="1.5" stroke-linecap="round" stroke-linejoin="round"/>
<path d="M20.0015 9.39439C20.441 10.5227 20.6649 11.7235 20.6615 12.9344C20.6615 14.8726 20.0868 16.7674 19.0099 18.379C17.9331 19.9906 16.4025 21.2467 14.6118 21.9884C12.8211 22.7302 10.8506 22.9242 8.94963 22.5461C7.04862 22.168 5.30242 21.2346 3.93187 19.864C2.56131 18.4935 1.62797 16.7473 1.24983 14.8463C0.871696 12.9453 1.06577 10.9748 1.80751 9.1841C2.54925 7.39338 3.80534 5.86283 5.41695 4.786C7.02855 3.70916 8.92327 3.1344 10.8615 3.1344H16.3315" stroke="#010101" stroke-width="1.5" stroke-linecap="round" stroke-linejoin="round"/>
<path d="M13.9521 5.55426L16.3521 3.15425L13.9521 0.744263" stroke="#010101" stroke-width="1.5" stroke-linecap="round" stroke-linejoin="round"/>
</svg>
