<svg width="54" height="62" viewBox="0 0 54 62" fill="none" xmlns="http://www.w3.org/2000/svg">
<path d="M32.3841 61.5362C24.8305 58.8543 20.097 53.3546 17.4699 45.9292C16.7448 44.036 16.5051 41.9885 16.7731 39.9768C17.0411 37.9651 17.8082 36.0543 19.0029 34.4218C21.4545 30.9601 24.8539 29.4715 29.0198 30.328C33.1857 31.1846 35.8946 33.9315 36.9829 38.0961C37.3398 39.4666 37.2638 40.9493 37.3691 42.3848C37.3989 43.3318 37.6732 44.2546 38.1648 45.0617C38.6563 45.8688 39.3482 46.5323 40.1717 46.9866C40.905 47.3927 41.7242 47.6152 42.5604 47.6353C43.3966 47.6554 44.2251 47.4726 44.9768 47.1021C45.7284 46.7317 46.3809 46.1844 46.8795 45.5064C47.3781 44.8284 47.7084 44.0395 47.8423 43.2059C48.1318 41.056 48.0086 38.8699 47.4794 36.767C46.081 30.1745 42.6758 24.9524 36.8483 21.5439C33.0526 19.3708 28.6599 18.5027 24.3328 19.0707C20.0056 19.6386 15.9787 21.6117 12.8594 24.6925C8.93633 28.5206 6.54421 33.6714 6.13855 39.1646C5.73289 44.6578 7.34187 50.1098 10.6593 54.4829C10.8899 54.7181 11.0652 55.0028 11.1716 55.3158C11.2779 55.6288 11.3128 55.962 11.2738 56.2906C11.2263 56.6623 11.0666 57.0102 10.8165 57.2871C10.5663 57.564 10.2377 57.7564 9.87538 57.8383C9.49919 57.9445 9.09955 57.9293 8.73234 57.7948C8.36512 57.6603 8.04871 57.4132 7.82755 57.088C5.93581 54.7093 4.50111 51.9946 3.59733 49.0837C0.80643 39.8092 2.33942 31.3146 8.47121 23.8477C10.5136 21.2721 13.0768 19.1662 15.9897 17.6707C18.9027 16.1752 22.0984 15.3247 25.363 15.1759C34.859 14.6206 42.1258 18.7202 47.3683 26.5533C50.471 31.2652 52.0117 36.8501 51.7682 42.503C51.6912 44.8165 50.7634 47.018 49.1656 48.6782C47.5678 50.3383 45.4146 51.3379 43.1264 51.482C40.8754 51.5783 38.6688 50.8302 36.9317 49.3817C35.1946 47.9333 34.0498 45.887 33.718 43.6372C33.5308 42.3553 33.6129 41.038 33.4666 39.7443C33.0161 35.7273 28.856 32.9568 25.1933 34.2682C22.613 35.1897 21.2965 37.2573 20.7582 39.8565C20.2199 42.4557 20.8518 44.7536 21.9284 47.0102C23.8612 50.9898 26.8588 54.3437 30.582 56.6923C31.394 57.2723 32.3417 57.6286 33.3317 57.726C33.7298 57.7718 34.1018 57.9499 34.3888 58.2321C34.6758 58.5144 34.8618 58.885 34.9176 59.2856C34.9951 59.6926 34.9363 60.1141 34.751 60.484C34.5658 60.8539 34.2643 61.1512 33.8937 61.3295L33.4723 61.5362H32.3841Z" fill="#4F5962"/>
<path d="M20.6057 61.5363C20.1214 61.2387 19.667 60.8945 19.2484 60.5084C15.6969 56.5978 12.7071 52.3268 10.7763 47.347C9.15022 43.1792 9.09888 38.5532 10.632 34.3497C12.1651 30.1462 15.1756 26.6586 19.0904 24.5508C23.0811 22.4655 27.7193 22.0313 32.0217 23.3403C36.324 24.6493 39.9523 27.5985 42.1374 31.5627C43.6883 34.2833 44.5186 37.3615 44.548 40.5004C44.548 41.8059 43.8634 42.6743 42.7342 42.7097C41.605 42.7452 40.78 41.9064 40.7449 40.5772C40.7418 38.5794 40.3233 36.6045 39.517 34.7801C38.7108 32.9557 37.5346 31.3223 36.0642 29.9855C34.5187 28.5653 32.6669 27.5281 30.6555 26.956C28.6441 26.3838 26.5284 26.2925 24.476 26.6891C22.4236 27.0858 20.4909 27.9596 18.831 29.2413C17.1711 30.523 15.8295 32.1773 14.9128 34.0733C12.7772 38.3384 12.8475 42.6566 14.7374 46.9925C16.6095 51.091 19.1444 54.8463 22.2382 58.1041C23.0456 58.9902 23.1687 60.0772 22.4607 60.8451C22.1518 61.1154 21.812 61.3475 21.4485 61.5363H20.6057Z" fill="#4F5962"/>
<path d="M53.6569 23.4342C53.6165 23.4781 53.583 23.5279 53.5575 23.5819C53.4581 23.9306 53.2569 24.2411 52.9804 24.4729C52.7039 24.7047 52.3648 24.8471 52.0071 24.8815C51.6407 24.9401 51.2653 24.8864 50.9294 24.7274C50.5936 24.5684 50.3126 24.3114 50.1229 23.9895C48.8987 22.1404 47.4611 20.4449 45.8401 18.9388C39.8897 13.4686 32.9036 10.8163 24.8761 11.4779C16.0997 12.2045 9.24831 16.4518 4.14043 23.6292C3.98443 23.9318 3.76838 24.1986 3.50563 24.4131C3.24288 24.6276 2.93887 24.785 2.61313 24.8756C2.24103 24.9498 1.85561 24.9088 1.50693 24.7581C1.15826 24.6074 0.862668 24.3539 0.659005 24.0309C0.435846 23.7173 0.320384 23.3387 0.329889 22.9527C0.339394 22.5667 0.473255 22.1944 0.711572 21.8924C2.07675 20.0517 3.54172 18.2887 5.09978 16.6113C9.3974 12.2461 14.906 9.30045 20.8973 8.1639C30.5982 6.29129 39.287 8.61285 46.9752 14.8273C49.3523 16.7736 51.4305 19.065 53.1421 21.6266C53.3293 21.8983 53.4931 22.2173 53.6686 22.4773L53.6569 23.4342Z" fill="#4F5962"/>
<path d="M28.44 0C35.6484 0.112238 43.1786 3.05407 49.6322 8.81367C49.9231 9.02709 50.1513 9.31612 50.2925 9.65002C50.4336 9.98392 50.4825 10.3502 50.4339 10.7099C50.1764 12.2635 48.4852 12.8306 47.2273 11.8146C45.9693 10.7985 44.7818 9.76474 43.4653 8.86093C38.2526 5.29457 32.0317 3.53827 25.7428 3.85746C19.0571 4.13945 12.6633 6.70074 7.60485 11.1234C7.32986 11.3597 7.07248 11.6019 6.79749 11.8323C6.42244 12.169 5.93116 12.3435 5.42989 12.3181C4.92862 12.2927 4.45745 12.0694 4.11771 11.6964C3.94524 11.5081 3.81232 11.2864 3.72689 11.0448C3.64145 10.8032 3.6053 10.5467 3.62061 10.2907C3.63591 10.0346 3.70215 9.78431 3.81574 9.55486C3.92932 9.3254 4.08776 9.1215 4.28141 8.95544C6.94795 6.49681 9.98826 4.48639 13.2861 3.0009C17.569 1.02787 22.2965 0 28.44 0Z" fill="#4F5962"/>
<path d="M39.792 57.7733C37.1552 57.5872 34.6471 56.5519 32.6363 54.8197C27.8971 50.9681 25.2115 46.0178 24.995 39.8033C24.954 38.5215 25.7207 37.6413 26.85 37.6236C27.9792 37.6058 28.7339 38.4683 28.8041 39.7384C29.0966 45.4507 31.6301 49.8398 36.4455 52.8585C37.5542 53.5309 38.8152 53.9052 40.108 53.9454C40.3658 53.9451 40.6209 53.9977 40.858 54.1C41.095 54.2024 41.3092 54.3523 41.487 54.5407C41.6649 54.7291 41.8029 54.9521 41.8927 55.196C41.9826 55.44 42.0223 55.6998 42.0096 55.9598C41.9872 56.228 41.9115 56.4888 41.7867 56.7266C41.662 56.9645 41.491 57.1744 41.2839 57.3438C41.0768 57.5132 40.8377 57.6385 40.5814 57.7124C40.3251 57.7862 40.0565 57.8069 39.792 57.7733Z" fill="#4F5962"/>
</svg>
