<svg width="24" height="24" viewBox="0 0 24 24" fill="none" xmlns="http://www.w3.org/2000/svg">
<path d="M9.17071 16.3943C9.26961 16.7913 9.49663 17.1446 9.81661 17.3995C10.1366 17.6544 10.5317 17.7967 10.9407 17.8043H13.0307C13.4666 17.7912 13.8796 17.6061 14.1794 17.2894C14.4792 16.9728 14.6415 16.5503 14.6307 16.1143C14.678 15.7576 14.5919 15.3959 14.3889 15.0988C14.1859 14.8016 13.8803 14.5899 13.5307 14.5043L10.2007 13.3443C9.85002 13.2607 9.54305 13.0495 9.33967 12.7518C9.1363 12.4541 9.0511 12.0914 9.10071 11.7343C9.08994 11.2983 9.2522 10.8759 9.55201 10.5592C9.85183 10.2425 10.2648 10.0574 10.7007 10.0443H12.7907C13.1919 10.0484 13.581 10.182 13.9 10.4253C14.219 10.6686 14.4507 11.0085 14.5607 11.3943" stroke="#010101" stroke-width="1.5" stroke-linecap="round" stroke-linejoin="round"/>
<path d="M11.8721 8.91418V18.9142" stroke="#010101" stroke-width="1.5" stroke-linecap="round" stroke-linejoin="round"/>
<path d="M7.25098 5.26434V4.39434C7.25098 2.39434 7.25098 0.824341 10.821 0.824341H12.611C16.181 0.824341 16.181 2.41434 16.181 4.39434V5.28434" stroke="#010101" stroke-width="1.5" stroke-linecap="round" stroke-linejoin="round"/>
<path d="M22.091 7.8344C22.0115 7.42157 21.8174 7.03945 21.5309 6.73175C21.2444 6.42404 20.8771 6.20317 20.471 6.0944C14.8286 4.6243 8.90352 4.6243 3.26104 6.0944C2.85493 6.20317 2.48763 6.42404 2.20115 6.73175C1.91467 7.03945 1.72056 7.42157 1.64104 7.8344C1.06106 11.8569 1.06106 15.9419 1.64104 19.9644C1.72295 20.3863 1.92665 20.775 2.22699 21.0825C2.52733 21.3899 2.91115 21.6026 3.33103 21.6944C8.97691 23.1645 14.9052 23.1645 20.551 21.6944C20.9522 21.59 21.3156 21.3739 21.5988 21.0712C21.882 20.7685 22.0735 20.3916 22.151 19.9844C22.7092 15.9522 22.689 11.8609 22.091 7.8344Z" stroke="#010101" stroke-width="1.5" stroke-linecap="round" stroke-linejoin="round"/>
</svg>
