<svg width="24" height="22" viewBox="0 0 24 22" fill="none" xmlns="http://www.w3.org/2000/svg">
<path d="M1.71428 9.48719H18.8571L13.2171 3.72554C13.0565 3.56273 12.9289 3.36904 12.8419 3.15564C12.7549 2.94223 12.7101 2.71333 12.7101 2.48214C12.7101 2.25095 12.7549 2.02205 12.8419 1.80865C12.9289 1.59524 13.0565 1.40155 13.2171 1.23875C13.5383 0.912572 13.9728 0.729492 14.4257 0.729492C14.8786 0.729492 15.3131 0.912572 15.6343 1.23875L22.9886 8.76917C23.6324 9.423 23.9962 10.311 24 11.2384C23.9917 12.1598 23.6283 13.0407 22.9886 13.6902L15.6343 21.2206C15.4744 21.3828 15.2849 21.5112 15.0765 21.5985C14.8681 21.6858 14.6449 21.7303 14.4197 21.7295C14.1944 21.7287 13.9715 21.6825 13.7637 21.5937C13.5559 21.5049 13.3673 21.3752 13.2086 21.2119C13.0499 21.0486 12.9242 20.855 12.8387 20.6421C12.7533 20.4292 12.7097 20.2012 12.7105 19.9711C12.7113 19.7409 12.7564 19.5133 12.8434 19.301C12.9303 19.0887 13.0573 18.896 13.2171 18.7338L18.8571 12.9897H1.71428C1.25963 12.9897 0.823591 12.8052 0.502102 12.4768C0.180611 12.1484 0 11.7029 0 11.2384C0 10.774 0.180611 10.3285 0.502102 10.0001C0.823591 9.67169 1.25963 9.48719 1.71428 9.48719Z" fill="white"/>
</svg>
