<svg width="24" height="24" viewBox="0 0 24 24" fill="none" xmlns="http://www.w3.org/2000/svg">
<path d="M5.11153 6.39437V18.7844C5.11153 21.7244 6.63153 22.4144 8.49153 20.3244C8.668 20.1002 8.89605 19.922 9.15625 19.8049C9.41645 19.6879 9.70109 19.6355 9.98592 19.6522C10.2707 19.6689 10.5473 19.7542 10.7921 19.9008C11.0368 20.0475 11.2425 20.2511 11.3915 20.4944L12.4515 21.9844C12.6073 22.2521 12.8305 22.4743 13.099 22.6287C13.3675 22.7831 13.6718 22.8644 13.9815 22.8644C14.2913 22.8644 14.5956 22.7831 14.8641 22.6287C15.1325 22.4743 15.3558 22.2521 15.5115 21.9844L16.5715 20.5044C16.7229 20.261 16.9305 20.0575 17.1769 19.911C17.4233 19.7646 17.7013 19.6794 17.9875 19.6628C18.2736 19.6461 18.5596 19.6984 18.8214 19.8153C19.0831 19.9322 19.3129 20.1102 19.4915 20.3344C21.3515 22.4244 22.8715 21.7344 22.8715 18.7944V6.39437C22.8715 1.96437 21.8715 0.85437 17.9315 0.85437H2.56152" stroke="#010101" stroke-width="1.5" stroke-linecap="round" stroke-linejoin="round"/>
<path d="M2.99176 0.814331C1.30176 0.814331 0.881759 1.92433 0.881759 6.35433V9.35433C0.813506 10.0115 1.00404 10.6695 1.41292 11.1885C1.8218 11.7075 2.41684 12.0468 3.07176 12.1343H5.07176V6.39433C5.11176 1.92433 4.69176 0.814331 2.99176 0.814331Z" stroke="#010101" stroke-width="1.5" stroke-linecap="round" stroke-linejoin="round"/>
<path d="M11.562 13.3942C11.6505 13.7532 11.8556 14.0726 12.1452 14.3024C12.4347 14.5322 12.7924 14.6595 13.162 14.6642H15.042C15.4355 14.6537 15.8088 14.488 16.0805 14.2032C16.3521 13.9184 16.5001 13.5377 16.492 13.1442C16.5354 12.8215 16.457 12.4942 16.2721 12.2261C16.0872 11.958 15.8091 11.7684 15.492 11.6942L12.492 10.6942C12.1761 10.6181 11.8993 10.428 11.7148 10.1604C11.5303 9.89286 11.451 9.56664 11.492 9.24423C11.484 8.84808 11.633 8.46482 11.9065 8.17816C12.1801 7.8915 12.5559 7.72472 12.952 7.71423H14.832C15.2012 7.72067 15.558 7.84855 15.8472 8.07812C16.1364 8.30768 16.342 8.62613 16.432 8.98423" stroke="#010101" stroke-width="1.5" stroke-linecap="round" stroke-linejoin="round"/>
<path d="M13.9932 6.6842V15.6842" stroke="#010101" stroke-width="1.5" stroke-linecap="round" stroke-linejoin="round"/>
</svg>
