<svg width="22" height="25" viewBox="0 0 22 25" fill="none" xmlns="http://www.w3.org/2000/svg">
<path d="M8.43211 8.39432C8.52028 8.75427 8.72498 9.07496 9.01437 9.30647C9.30376 9.53798 9.66157 9.66731 10.0321 9.67432H11.9121C12.3064 9.66125 12.6798 9.49334 12.9512 9.20695C13.2226 8.92057 13.3702 8.53879 13.3621 8.14432C13.4032 7.82191 13.3238 7.49569 13.1393 7.22813C12.9548 6.96058 12.6781 6.77051 12.3621 6.69432L9.3621 5.64432C9.04726 5.56616 8.77184 5.37563 8.58767 5.10858C8.4035 4.84153 8.32328 4.51639 8.3621 4.19432C8.35812 3.99864 8.39273 3.8041 8.46395 3.6218C8.53518 3.4395 8.64164 3.273 8.77722 3.13185C8.9128 2.9907 9.07486 2.87764 9.25415 2.79913C9.43343 2.72063 9.62643 2.67822 9.82211 2.67432H11.7021C12.0717 2.67906 12.4294 2.80632 12.7189 3.03615C13.0085 3.26598 13.2136 3.5854 13.3021 3.94432" stroke="#010101" stroke-width="1.5" stroke-linecap="round" stroke-linejoin="round"/>
<path d="M10.8604 1.67432V10.6743" stroke="#010101" stroke-width="1.5" stroke-linecap="round" stroke-linejoin="round"/>
<path d="M3.76077 21.3942H2.33077C2.14281 21.398 1.96047 21.33 1.82078 21.2042L1.19078 20.6642C1.1012 20.5847 1.03115 20.4856 0.986063 20.3746C0.940974 20.2636 0.92206 20.1437 0.930781 20.0242L1.09077 17.7342C1.10523 17.5622 1.17563 17.3997 1.29121 17.2715C1.40679 17.1432 1.56117 17.0564 1.73077 17.0242L2.82078 16.8242C3.66078 15.3442 12.0208 10.4342 15.2008 16.8242C16.7487 17.0229 18.2797 17.3371 19.7808 17.7642C20.1085 17.8754 20.393 18.0868 20.594 18.3686C20.795 18.6503 20.9023 18.9881 20.9008 19.3342V20.8142C20.9021 20.8899 20.8883 20.9651 20.8603 21.0354C20.8322 21.1057 20.7905 21.1698 20.7374 21.2238C20.6843 21.2777 20.621 21.3206 20.5512 21.3499C20.4814 21.3792 20.4065 21.3942 20.3308 21.3942H18.5508" stroke="#010101" stroke-width="1.5" stroke-linecap="round" stroke-linejoin="round"/>
<path d="M15.1518 16.8644H11.3018" stroke="#010101" stroke-width="1.5" stroke-linecap="round" stroke-linejoin="round"/>
<path d="M16.2605 23.6743C17.4976 23.6743 18.5005 22.6714 18.5005 21.4343C18.5005 20.1972 17.4976 19.1943 16.2605 19.1943C15.0234 19.1943 14.0205 20.1972 14.0205 21.4343C14.0205 22.6714 15.0234 23.6743 16.2605 23.6743Z" stroke="#010101" stroke-width="1.5" stroke-linecap="round" stroke-linejoin="round"/>
<path d="M5.99097 23.6743C7.22809 23.6743 8.23097 22.6714 8.23097 21.4343C8.23097 20.1972 7.22809 19.1943 5.99097 19.1943C4.75386 19.1943 3.75098 20.1972 3.75098 21.4343C3.75098 22.6714 4.75386 23.6743 5.99097 23.6743Z" stroke="#010101" stroke-width="1.5" stroke-linecap="round" stroke-linejoin="round"/>
<path d="M8.23145 21.4343H14.0314" stroke="#010101" stroke-width="1.5" stroke-linecap="round" stroke-linejoin="round"/>
</svg>
