<svg width="24" height="24" viewBox="0 0 24 24" fill="none" xmlns="http://www.w3.org/2000/svg">
<path d="M21.3324 22.7543V10.8743C21.3324 9.72433 20.8624 9.31433 19.7724 9.31433H19.0024C17.9124 9.31433 17.4424 9.72433 17.4424 10.8743V22.7543" stroke="#010101" stroke-width="1.5" stroke-linecap="round" stroke-linejoin="round"/>
<path d="M13.8129 22.7543V14.1243C13.8129 12.9743 13.3429 12.5643 12.2529 12.5643H11.4729C10.3829 12.5643 9.92285 12.9743 9.92285 14.1243V22.7543" stroke="#010101" stroke-width="1.5" stroke-linecap="round" stroke-linejoin="round"/>
<path d="M6.2523 22.7543V17.3943C6.2523 16.2443 5.78231 15.8344 4.69231 15.8344H3.91231C2.82231 15.8344 2.3623 16.2443 2.3623 17.3943V22.7744" stroke="#010101" stroke-width="1.5" stroke-linecap="round" stroke-linejoin="round"/>
<path d="M0.862305 22.7543H22.8623" stroke="#010101" stroke-width="1.5" stroke-linecap="round" stroke-linejoin="round"/>
<path d="M2.35254 7.5743L20.4325 3.02429" stroke="#010101" stroke-width="1.5" stroke-linecap="round" stroke-linejoin="round"/>
<path d="M19.3322 6.39429L20.7522 3.81429C20.9059 3.53578 20.9427 3.20764 20.8546 2.90199C20.7664 2.59634 20.5605 2.33819 20.2822 2.18428L17.7021 0.764282" stroke="#010101" stroke-width="1.5" stroke-linecap="round" stroke-linejoin="round"/>
</svg>
