<svg width="20" height="24" viewBox="0 0 20 24" fill="none" xmlns="http://www.w3.org/2000/svg">
<path d="M15.4719 8.52419V6.79419C15.5038 6.03821 15.3824 5.28359 15.1152 4.57571C14.8479 3.86784 14.4402 3.22135 13.9166 2.67514C13.3929 2.12893 12.7643 1.69429 12.0683 1.39737C11.3723 1.10045 10.6235 0.947388 9.86685 0.947388C9.1102 0.947388 8.36136 1.10045 7.6654 1.39737C6.96944 1.69429 6.34072 2.12893 5.8171 2.67514C5.29348 3.22135 4.88577 3.86784 4.6185 4.57571C4.35122 5.28359 4.2299 6.03821 4.26184 6.79419V8.52419" stroke="#010101" stroke-width="1.5" stroke-linecap="round" stroke-linejoin="round"/>
<path d="M13.7118 8.52429H6.01184C3.17862 8.52429 0.881836 10.8211 0.881836 13.6543V18.0543C0.881836 20.8875 3.17862 23.1843 6.01184 23.1843H13.7118C16.545 23.1843 18.8418 20.8875 18.8418 18.0543V13.6543C18.8418 10.8211 16.545 8.52429 13.7118 8.52429Z" stroke="#010101" stroke-width="1.5" stroke-linecap="round" stroke-linejoin="round"/>
<path d="M5.03223 15.1642V15.8542" stroke="#010101" stroke-width="1.5" stroke-linecap="round" stroke-linejoin="round"/>
<path d="M8.25098 15.1642V15.8542" stroke="#010101" stroke-width="1.5" stroke-linecap="round" stroke-linejoin="round"/>
<path d="M11.4717 15.1642V15.8542" stroke="#010101" stroke-width="1.5" stroke-linecap="round" stroke-linejoin="round"/>
<path d="M14.6924 15.1642V15.8542" stroke="#010101" stroke-width="1.5" stroke-linecap="round" stroke-linejoin="round"/>
</svg>
