<svg width="24" height="24" viewBox="0 0 24 24" fill="none" xmlns="http://www.w3.org/2000/svg">
<path d="M21.4691 22.9902V11.1102C21.4691 9.96017 20.9991 9.55017 19.9091 9.55017H19.1391C18.0491 9.55017 17.5791 9.96017 17.5791 11.1102V22.9902" stroke="#8E949A" stroke-width="1.5" stroke-linecap="round" stroke-linejoin="round"/>
<path d="M13.9496 22.9902V14.3602C13.9496 13.2102 13.4796 12.8002 12.3896 12.8002H11.6096C10.5196 12.8002 10.0596 13.2102 10.0596 14.3602V22.9902" stroke="#8E949A" stroke-width="1.5" stroke-linecap="round" stroke-linejoin="round"/>
<path d="M6.39 22.9902V17.6302C6.39 16.4802 5.92 16.0702 4.83 16.0702H4.05C2.96 16.0702 2.5 16.4802 2.5 17.6302V23.0102" stroke="#8E949A" stroke-width="1.5" stroke-linecap="round" stroke-linejoin="round"/>
<path d="M1 22.9901H23" stroke="#8E949A" stroke-width="1.5" stroke-linecap="round" stroke-linejoin="round"/>
<path d="M2.48926 7.81013L20.5693 3.26013" stroke="#8E949A" stroke-width="1.5" stroke-linecap="round" stroke-linejoin="round"/>
<path d="M19.4698 6.63013L20.8898 4.05013C21.0435 3.77162 21.0804 3.44348 20.9922 3.13783C20.9041 2.83218 20.6982 2.57403 20.4198 2.42012L17.8398 1.00012" stroke="#8E949A" stroke-width="1.5" stroke-linecap="round" stroke-linejoin="round"/>
</svg>
