<svg width="24" height="25" viewBox="0 0 24 25" fill="none" xmlns="http://www.w3.org/2000/svg">
<path d="M11.8523 15.0343V22.1143C11.8523 22.5202 11.6932 22.91 11.4089 23.1998C11.1247 23.4897 10.7381 23.6564 10.3323 23.6643C10.1283 23.6656 9.92619 23.6264 9.73754 23.549C9.54888 23.4716 9.37747 23.3575 9.23328 23.2133C9.08908 23.0691 8.97496 22.8977 8.89754 22.709C8.82012 22.5204 8.78093 22.3182 8.78226 22.1143V21.5843" stroke="#010101" stroke-width="1.5" stroke-linecap="round" stroke-linejoin="round"/>
<path d="M11.8604 3.57418V1.66418" stroke="#010101" stroke-width="1.5" stroke-linecap="round" stroke-linejoin="round"/>
<path d="M22.0112 9.58433L21.6612 9.01433C20.6311 7.35006 19.193 5.97651 17.4831 5.02395C15.7733 4.0714 13.8485 3.57141 11.8912 3.57141C9.93394 3.57141 8.00912 4.0714 6.29929 5.02395C4.58946 5.97651 3.15129 7.35006 2.1212 9.01433L1.77121 9.58433C1.55133 9.91462 1.41289 10.2923 1.36725 10.6865C1.32161 11.0807 1.37005 11.48 1.50862 11.8518C1.6472 12.2236 1.87195 12.5573 2.16443 12.8254C2.45691 13.0935 2.80879 13.2885 3.19121 13.3943C8.83727 15.2841 14.9451 15.2841 20.5912 13.3943C20.9602 13.2697 21.2967 13.0643 21.5763 12.7932C21.856 12.5221 22.0716 12.1921 22.2076 11.8272C22.3437 11.4622 22.3966 11.0715 22.3626 10.6836C22.3286 10.2956 22.2086 9.92007 22.0112 9.58433Z" stroke="#010101" stroke-width="1.5" stroke-linecap="round" stroke-linejoin="round"/>
<path d="M16.3307 14.2143C15.3307 7.99434 13.6907 3.57434 11.8807 3.57434C10.0707 3.57434 8.39066 7.99434 7.43066 14.2143" stroke="#010101" stroke-width="1.5" stroke-linecap="round" stroke-linejoin="round"/>
</svg>
