<svg width="24" height="23" viewBox="0 0 24 23" fill="none" xmlns="http://www.w3.org/2000/svg">
<path d="M9.8218 19.2342C9.90857 19.568 10.1042 19.8633 10.3777 20.0734C10.6512 20.2835 10.9869 20.3964 11.3318 20.3942H13.0518C13.2313 20.3903 13.4082 20.3509 13.5724 20.2784C13.7366 20.2058 13.8848 20.1014 14.0084 19.9712C14.1321 19.8411 14.2287 19.6877 14.2928 19.5201C14.3569 19.3524 14.3871 19.1737 14.3818 18.9942C14.4199 18.6995 14.3483 18.401 14.1804 18.1557C14.0126 17.9104 13.7604 17.7354 13.4718 17.6642L10.7118 16.6642C10.4241 16.5951 10.172 16.4221 10.004 16.1785C9.83605 15.9348 9.76404 15.6377 9.80181 15.3442C9.79649 15.1648 9.82674 14.9861 9.89083 14.8184C9.95492 14.6507 10.0516 14.4973 10.1752 14.3672C10.2989 14.237 10.447 14.1327 10.6112 14.0601C10.7754 13.9875 10.9523 13.9481 11.1318 13.9442H12.8518C13.1902 13.9491 13.5177 14.0654 13.7834 14.2751C14.0491 14.4848 14.2383 14.7762 14.3218 15.1042" stroke="#010101" stroke-width="1.5" stroke-linecap="round" stroke-linejoin="round"/>
<path d="M12.0518 13.0643V21.3143" stroke="#010101" stroke-width="1.5" stroke-linecap="round" stroke-linejoin="round"/>
<path d="M4.7121 7.7843C4.61125 9.09854 4.99545 10.4042 5.79208 11.4543C7.79993 10.7302 9.91768 10.3581 12.0521 10.3543" stroke="#010101" stroke-width="1.5" stroke-linecap="round" stroke-linejoin="round"/>
<path d="M12.9318 1.24436C12.3524 1.1137 11.7511 1.1137 11.1718 1.24436C7.53524 2.23716 4.10722 3.87665 1.05176 6.08436C2.21686 6.75968 3.44212 7.32544 4.71176 7.77436C9.45966 6.06737 14.6539 6.06737 19.4018 7.77436C20.669 7.32731 21.8911 6.76146 23.0518 6.08436C19.9963 3.87665 16.5683 2.23716 12.9318 1.24436Z" stroke="#010101" stroke-width="1.5" stroke-linecap="round" stroke-linejoin="round"/>
<path d="M19.4018 7.7843C19.5026 9.09854 19.1184 10.4042 18.3217 11.4543C16.3106 10.7295 14.1895 10.3573 12.0518 10.3543" stroke="#010101" stroke-width="1.5" stroke-linecap="round" stroke-linejoin="round"/>
</svg>
