<svg width="14" height="16" viewBox="0 0 14 16" fill="none" xmlns="http://www.w3.org/2000/svg">
<path d="M5.9871 9.4208C5.9871 9.94401 6.41125 10.3682 6.93447 10.3682C7.45768 10.3682 7.88184 9.94401 7.88184 9.4208L7.88184 1.84185C7.88184 1.31863 7.45769 0.89448 6.93447 0.89448C6.41125 0.89448 5.9871 1.31863 5.9871 1.84185L5.9871 9.4208Z" fill="#13C999"/>
<path d="M11.9491 7.804C12.3191 7.43403 12.919 7.43403 13.2889 7.804C13.6589 8.17397 13.6589 8.77381 13.2889 9.14378L7.60472 14.828C7.24606 15.1866 6.66856 15.1992 6.29467 14.8565L0.610457 9.64593C0.224765 9.29238 0.19871 8.6931 0.552261 8.30741C0.905811 7.92172 1.50508 7.89566 1.89078 8.24922L6.90633 12.8468L11.9491 7.804Z" fill="#13C999"/>
</svg>
