<svg width="15" height="15" viewBox="0 0 15 15" fill="none" xmlns="http://www.w3.org/2000/svg">
<path d="M14.3937 0C14.4327 0.0156029 14.4717 0.0351066 14.5107 0.0507095C14.9749 0.234044 15.127 0.799649 14.815 1.18972C14.7682 1.24823 14.7174 1.29894 14.6628 1.34965C12.6579 3.35463 10.6529 5.3635 8.64401 7.36457C8.54649 7.46209 8.53869 7.5089 8.64011 7.61032C10.6646 9.627 12.6813 11.6476 14.7018 13.6642C14.9086 13.871 15.0256 14.105 14.9554 14.4015C14.8306 14.9515 14.1869 15.1621 13.7618 14.7916C13.7189 14.7526 13.676 14.7096 13.6369 14.6706C11.6281 12.6618 9.61919 10.6529 7.61032 8.64011C7.5089 8.53869 7.46209 8.5465 7.36457 8.64401C5.344 10.6724 3.31952 12.693 1.29894 14.7174C0.91277 15.1036 0.358867 15.0568 0.10532 14.616C0.0663124 14.5458 0.0351066 14.4678 0.00390073 14.3937C0.00390073 14.2962 0.00390073 14.1987 0.00390073 14.1011C0.0741138 13.8827 0.226242 13.7189 0.386172 13.5589C2.37554 11.5735 4.35711 9.58799 6.34648 7.60642C6.4401 7.5128 6.4401 7.46599 6.34648 7.37238C4.34931 5.38691 2.35994 3.39363 0.370569 1.40816C0.21454 1.25213 0.0702131 1.0922 0 0.877664C0 0.780146 0 0.682627 0 0.585109C0.0936175 0.288654 0.288654 0.0936175 0.585109 0C0.682627 0 0.780146 0 0.877664 0C1.0922 0.0663124 1.25213 0.21454 1.40816 0.370569C3.39363 2.35994 5.3869 4.34931 7.37238 6.34258C7.46599 6.4362 7.5128 6.4362 7.60642 6.34258C9.59189 4.34931 11.5852 2.35994 13.5706 0.370569C13.7267 0.21454 13.8866 0.0702131 14.1011 0C14.1986 0 14.2962 0 14.3937 0Z" fill="#23303B"/>
</svg>
