<svg width="22" height="25" viewBox="0 0 22 25" fill="none" xmlns="http://www.w3.org/2000/svg">
<path d="M5.95215 10.2443V11.0043" stroke="#010101" stroke-width="1.5" stroke-linecap="round" stroke-linejoin="round"/>
<path d="M9.22168 10.2443V11.0043" stroke="#010101" stroke-width="1.5" stroke-linecap="round" stroke-linejoin="round"/>
<path d="M12.501 10.2443V11.0043" stroke="#010101" stroke-width="1.5" stroke-linecap="round" stroke-linejoin="round"/>
<path d="M15.7705 10.2443V11.0043" stroke="#010101" stroke-width="1.5" stroke-linecap="round" stroke-linejoin="round"/>
<path d="M20.6515 6.39438C20.6389 5.75568 20.4439 5.13389 20.0895 4.60236C19.7352 4.07082 19.2362 3.65169 18.6515 3.39438C16.2081 2.27775 13.553 1.69983 10.8665 1.69983C8.18001 1.69983 5.52494 2.27775 3.0815 3.39438C2.50432 3.64807 2.01043 4.05948 1.65664 4.58133C1.30284 5.10318 1.10349 5.71428 1.0815 6.34438C0.931501 10.3444 1.5515 19.2344 9.4215 23.3444C9.87477 23.5819 10.3767 23.7118 10.8883 23.724C11.3999 23.7361 11.9075 23.6302 12.3715 23.4144C20.2015 19.7544 20.8115 10.5544 20.6515 6.39438Z" stroke="#010101" stroke-width="1.5" stroke-linecap="round" stroke-linejoin="round"/>
</svg>
