<svg width="20" height="24" viewBox="0 0 20 24" fill="none" xmlns="http://www.w3.org/2000/svg">
<path d="M17.3327 2.20429C15.0727 -0.0557077 13.3327 0.664292 11.7527 2.20429L2.84275 11.1043C2.46823 11.5265 2.21282 12.0408 2.10274 12.5943L1.58274 16.2543C1.54956 16.4844 1.57031 16.719 1.64334 16.9397C1.71638 17.1604 1.83971 17.3611 2.0036 17.5259C2.16749 17.6908 2.36745 17.8153 2.5877 17.8897C2.80796 17.964 3.04248 17.9861 3.27275 17.9543L6.94275 17.4343C7.49401 17.3263 8.00557 17.0705 8.42274 16.6943L17.3327 7.78429C18.8427 6.24429 19.5627 4.46429 17.3327 2.20429Z" stroke="#010101" stroke-width="1.5" stroke-linecap="round" stroke-linejoin="round"/>
<path d="M10.4424 3.48425C11.6936 4.00191 12.8305 4.7612 13.788 5.71867C14.7454 6.67615 15.5047 7.81303 16.0224 9.06425" stroke="#010101" stroke-width="1.5" stroke-linecap="round" stroke-linejoin="round"/>
<path d="M1.53223 22.7643H18.7322" stroke="#010101" stroke-width="1.5" stroke-linecap="round" stroke-linejoin="round"/>
</svg>
