<svg width="33" height="33" viewBox="0 0 33 33" fill="none" xmlns="http://www.w3.org/2000/svg">
<path d="M15.2907 13.8456C15.4745 14.1865 15.5621 14.5709 15.5442 14.9578C15.5264 15.3446 15.4037 15.7193 15.1893 16.0418L12.6766 20.0966C12.49 20.3976 12.1914 20.6121 11.8467 20.693C11.5019 20.7738 11.1391 20.7144 10.8381 20.5278C10.5372 20.3412 10.3226 20.0427 10.2418 19.6979C10.1609 19.3531 10.2203 18.9904 10.4069 18.6894L12.4536 15.3876H9.6926C9.35599 15.3878 9.02402 15.3091 8.72332 15.1578C8.42261 15.0065 8.16153 14.7869 7.96099 14.5165C7.76046 14.2461 7.62605 13.9326 7.56855 13.6009C7.51104 13.2692 7.53204 12.9287 7.62986 12.6066C7.66991 12.4971 10.4042 8.01249 10.4042 8.01249C10.4909 7.85314 10.6092 7.71314 10.7518 7.60102C10.8944 7.48891 11.0584 7.40703 11.2337 7.36039C11.409 7.31376 11.592 7.30334 11.7715 7.32977C11.9509 7.3562 12.1231 7.41893 12.2776 7.51412C12.432 7.60932 12.5654 7.73499 12.6696 7.88346C12.7739 8.03193 12.8468 8.20009 12.8839 8.37766C12.9209 8.55524 12.9215 8.73851 12.8854 8.91629C12.8493 9.09408 12.7773 9.26264 12.6739 9.41168L10.6445 12.7174H13.4109C13.7969 12.7181 14.1756 12.8233 14.5066 13.022C14.8376 13.2206 15.1086 13.5052 15.2907 13.8456ZM32.9035 4.70675V8.04453C32.9037 8.81399 32.638 9.55987 32.1514 10.1559C31.6648 10.752 30.9872 11.1617 30.2333 11.3156V23.3983C30.2333 24.8147 29.6706 26.1731 28.6691 27.1746C27.6676 28.1761 26.3092 28.7388 24.8929 28.7388H21.6646C21.1439 29.9283 20.2882 30.9405 19.2018 31.6518C18.1155 32.363 16.8455 32.7426 15.5471 32.7441H7.5364C5.76658 32.742 4.06986 32.038 2.81841 30.7865C1.56696 29.5351 0.86296 27.8384 0.86084 26.0685L0.86084 7.37697C0.86296 5.60716 1.56696 3.91043 2.81841 2.65898C4.06986 1.40753 5.76658 0.703536 7.5364 0.701416L15.5471 0.701416C17.3169 0.703536 19.0136 1.40753 20.2651 2.65898C21.5165 3.91043 22.2205 5.60716 22.2226 7.37697V26.0685H24.8929C25.601 26.0685 26.2802 25.7872 26.781 25.2864C27.2817 24.7857 27.5631 24.1065 27.5631 23.3983V11.3156C26.8092 11.1617 26.1316 10.752 25.645 10.1559C25.1584 9.55987 24.8927 8.81399 24.8929 8.04453V4.70675C24.8929 4.35266 25.0335 4.01307 25.2839 3.76268C25.5343 3.5123 25.8739 3.37164 26.228 3.37164C26.5821 3.37164 26.9216 3.5123 27.172 3.76268C27.4224 4.01307 27.5631 4.35266 27.5631 4.70675V6.04186H30.2333V4.70675C30.2333 4.35266 30.374 4.01307 30.6243 3.76268C30.8747 3.5123 31.2143 3.37164 31.5684 3.37164C31.9225 3.37164 32.2621 3.5123 32.5125 3.76268C32.7629 4.01307 32.9035 4.35266 32.9035 4.70675ZM19.5524 26.0685V15.3876H18.2173C17.8632 15.3876 17.5236 15.247 17.2732 14.9966C17.0228 14.7462 16.8822 14.4066 16.8822 14.0525C16.8822 13.6984 17.0228 13.3588 17.2732 13.1085C17.5236 12.8581 17.8632 12.7174 18.2173 12.7174H19.5524V7.37697C19.5524 6.31469 19.1304 5.29592 18.3793 4.54478C17.6281 3.79363 16.6094 3.37164 15.5471 3.37164H7.5364C6.47412 3.37164 5.45535 3.79363 4.7042 4.54478C3.95305 5.29592 3.53106 6.31469 3.53106 7.37697V12.7174H4.86618C5.22027 12.7174 5.55986 12.8581 5.81024 13.1085C6.06062 13.3588 6.20129 13.6984 6.20129 14.0525C6.20129 14.4066 6.06062 14.7462 5.81024 14.9966C5.55986 15.247 5.22027 15.3876 4.86618 15.3876H3.53106V26.0685C3.53106 27.1308 3.95305 28.1496 4.7042 28.9007C5.45535 29.6519 6.47412 30.0739 7.5364 30.0739H15.5471C16.6094 30.0739 17.6281 29.6519 18.3793 28.9007C19.1304 28.1496 19.5524 27.1308 19.5524 26.0685Z" fill="white"/>
</svg>
