<svg width="22" height="24" viewBox="0 0 22 24" fill="none" xmlns="http://www.w3.org/2000/svg">
<path d="M13.1214 20.0343C13.1187 20.7593 12.8289 21.4536 12.3153 21.9653C11.8017 22.477 11.1063 22.7643 10.3814 22.7643C9.65827 22.7598 8.96562 22.4727 8.45137 21.9643C7.94027 21.4519 7.65267 20.758 7.65137 20.0343" stroke="#010101" stroke-width="1.5" stroke-linecap="round" stroke-linejoin="round"/>
<path d="M7.94238 3.20428C7.94238 2.55716 8.19945 1.93653 8.65704 1.47894C9.11463 1.02135 9.73525 0.764282 10.3824 0.764282C11.0295 0.764282 11.6501 1.02135 12.1077 1.47894C12.5653 1.93653 12.8224 2.55716 12.8224 3.20428" stroke="#010101" stroke-width="1.5" stroke-linecap="round" stroke-linejoin="round"/>
<path d="M15.0815 4.73429C13.7473 3.6814 12.0796 3.14208 10.3815 3.2143C9.41521 3.17804 8.45149 3.33679 7.54788 3.6811C6.64426 4.02541 5.81926 4.5482 5.12209 5.2183C4.42493 5.8884 3.86989 6.69207 3.49009 7.58135C3.1103 8.47064 2.91353 9.42731 2.91152 10.3943V10.4843C2.92362 12.1448 2.51784 13.7817 1.73152 15.2443C1.50609 15.6954 1.398 16.196 1.41722 16.6998C1.43645 17.2037 1.58237 17.6946 1.84151 18.1272C2.10066 18.5598 2.46466 18.92 2.89987 19.1747C3.33508 19.4294 3.82746 19.5703 4.33152 19.5843H16.4215C16.9232 19.5712 17.4136 19.4324 17.8477 19.1807C18.2819 18.9291 18.646 18.5725 18.9067 18.1437C19.1673 17.7148 19.3163 17.2274 19.3398 16.7262C19.3634 16.2249 19.2608 15.7257 19.0415 15.2743C18.2552 13.8117 17.8494 12.1748 17.8615 10.5143" stroke="#010101" stroke-width="1.5" stroke-linecap="round" stroke-linejoin="round"/>
<path d="M17.333 10.3544C18.9899 10.3544 20.333 9.01122 20.333 7.35437C20.333 5.69752 18.9899 4.35437 17.333 4.35437C15.6762 4.35437 14.333 5.69752 14.333 7.35437C14.333 9.01122 15.6762 10.3544 17.333 10.3544Z" stroke="#010101" stroke-width="1.5" stroke-linecap="round" stroke-linejoin="round"/>
</svg>
