<svg width="25" height="25" viewBox="0 0 25 25" fill="none" xmlns="http://www.w3.org/2000/svg">
<path d="M4.00098 13.2442V18.2442C4.00098 22.7342 4.44097 23.5442 9.27097 23.5142H15.731C20.271 23.5142 21.011 22.6542 21.011 18.1642V13.1642" stroke="#010101" stroke-width="1.5" stroke-linecap="round" stroke-linejoin="round"/>
<path d="M1.55176 10.3944V9.20441C1.55176 7.58441 2.15175 6.89441 3.85175 6.89441H21.1617C22.8617 6.89441 23.4718 7.58441 23.4718 9.19441V10.3944C23.4718 12.0144 22.8617 12.7044 21.1617 12.7044H3.85175C2.15175 12.6644 1.55176 11.9744 1.55176 10.3944Z" stroke="#010101" stroke-width="1.5" stroke-linecap="round" stroke-linejoin="round"/>
<path d="M19.0218 3.3943C18.756 3.05018 18.417 2.76952 18.0293 2.57268C17.6416 2.37584 17.2149 2.26776 16.7802 2.25627C16.3456 2.24478 15.9138 2.33018 15.5163 2.50626C15.1187 2.68234 14.7653 2.9447 14.4818 3.2743C13.7234 4.32742 13.2326 5.54921 13.0518 6.8343H15.8118C18.6818 6.8543 20.7818 5.3943 19.0218 3.3943Z" stroke="#010101" stroke-width="1.5" stroke-linecap="round" stroke-linejoin="round"/>
<path d="M11.3928 2.7143C11.0598 2.33444 10.6473 2.03257 10.1844 1.83015C9.72163 1.62772 9.2199 1.52971 8.71493 1.54307C8.20996 1.55644 7.71415 1.68085 7.26269 1.90747C6.81123 2.13409 6.4152 2.45736 6.10278 2.8543C4.10278 5.1443 6.49279 6.8543 9.83279 6.8543H13.0528C12.8392 5.36121 12.2699 3.94132 11.3928 2.7143Z" stroke="#010101" stroke-width="1.5" stroke-linecap="round" stroke-linejoin="round"/>
</svg>
