<svg width="27" height="27" viewBox="0 0 27 27" fill="none" xmlns="http://www.w3.org/2000/svg">
<path d="M16.3721 11.0435L10.8904 16.5252C10.1863 15.821 9.75293 14.8568 9.75293 13.7843C9.75293 11.6393 11.4863 9.90601 13.6313 9.90601C14.7038 9.90601 15.6679 10.3393 16.3721 11.0435Z" stroke="#292D32" stroke-width="1.5" stroke-linecap="round" stroke-linejoin="round"/>
<path d="M19.9376 7.0352C18.0418 5.6052 15.8751 4.8252 13.6326 4.8252C9.80848 4.8252 6.24431 7.07853 3.76348 10.9785C2.78848 12.506 2.78848 15.0735 3.76348 16.601C4.61931 17.9444 5.61598 19.1035 6.69931 20.0352" stroke="#292D32" stroke-width="1.5" stroke-linecap="round" stroke-linejoin="round"/>
<path d="M9.75293 21.9418C10.9879 22.4618 12.2988 22.7435 13.6313 22.7435C17.4554 22.7435 21.0196 20.4901 23.5004 16.5901C24.4754 15.0626 24.4754 12.4951 23.5004 10.9676C23.1429 10.4043 22.7529 9.87346 22.3521 9.37512" stroke="#292D32" stroke-width="1.5" stroke-linecap="round" stroke-linejoin="round"/>
<path d="M17.4349 14.5426C17.1532 16.0701 15.9074 17.3159 14.3799 17.5976" stroke="#292D32" stroke-width="1.5" stroke-linecap="round" stroke-linejoin="round"/>
<path d="M10.8904 16.5251L2.79785 24.6176" stroke="#292D32" stroke-width="1.5" stroke-linecap="round" stroke-linejoin="round"/>
<path d="M24.4646 2.95093L16.3721 11.0434" stroke="#292D32" stroke-width="1.5" stroke-linecap="round" stroke-linejoin="round"/>
</svg>
