<svg width="24" height="24" viewBox="0 0 24 24" fill="none" xmlns="http://www.w3.org/2000/svg">
<path d="M22.6829 17.8944C22.5523 17.6065 22.3402 17.3632 22.0729 17.1944L18.4329 14.5944C18.1903 14.4272 17.9325 14.2832 17.6629 14.1644C17.4513 14.073 17.2234 14.0254 16.9929 14.0244C16.7172 14.0312 16.4482 14.1105 16.2129 14.2544C15.9159 14.4182 15.6488 14.6312 15.4229 14.8844C15.1715 15.1312 14.8484 15.2921 14.5 15.3442C14.1515 15.3963 13.7956 15.3368 13.4829 15.1744C11.3782 14.0124 9.64486 12.2791 8.48294 10.1744C8.299 9.85917 8.22475 9.49189 8.27179 9.13001C8.31884 8.76812 8.48453 8.43204 8.74294 8.17436C8.97264 7.94108 9.17097 7.67887 9.33293 7.39436C9.47856 7.15987 9.55804 6.89035 9.56294 6.61436C9.55533 6.38252 9.5009 6.15462 9.40293 5.94436C9.29431 5.66775 9.14609 5.40837 8.96293 5.17436L6.41294 1.57436C6.22755 1.30782 5.97596 1.09415 5.68293 0.954355C5.40025 0.826534 5.09316 0.761708 4.78293 0.76436C4.35545 0.770812 3.93357 0.862589 3.54204 1.03431C3.15051 1.20603 2.79723 1.45424 2.50293 1.76436C1.94821 2.27577 1.51438 2.90432 1.23294 3.60436C0.970222 4.28005 0.83789 4.9994 0.842936 5.72436C0.835175 6.96819 1.10507 8.19807 1.63294 9.32436C3.25294 12.7344 9.47293 19.4144 14.2529 21.9344C15.3658 22.4917 16.5987 22.7665 17.8429 22.7344C18.5763 22.7394 19.3034 22.6001 19.9829 22.3244C20.6764 22.0327 21.2951 21.5883 21.7929 21.0244C22.0958 20.6893 22.3484 20.312 22.5429 19.9044C22.7165 19.5279 22.8086 19.1189 22.8129 18.7044C22.8198 18.4287 22.7758 18.1541 22.6829 17.8944Z" stroke="#010101" stroke-width="1.5" stroke-linecap="round" stroke-linejoin="round"/>
<path d="M14.333 0.784302C17.833 0.784302 22.823 4.5943 22.823 9.2743" stroke="#010101" stroke-width="1.5" stroke-linecap="round" stroke-linejoin="round"/>
<path d="M13.6338 4.60437C15.8638 4.60437 19.0338 7.02437 19.0338 10.0044" stroke="#010101" stroke-width="1.5" stroke-linecap="round" stroke-linejoin="round"/>
<path d="M13.4814 8.31433C13.959 8.3488 14.4083 8.55346 14.7478 8.8911C15.0873 9.22874 15.2944 9.67697 15.3314 10.1543" stroke="#010101" stroke-width="1.5" stroke-linecap="round" stroke-linejoin="round"/>
</svg>
