<svg width="15" height="16" viewBox="0 0 15 16" fill="none" xmlns="http://www.w3.org/2000/svg">
<path d="M8.51192 6.5792C8.51192 6.05599 8.08777 5.63184 7.56456 5.63184C7.04134 5.63184 6.61719 6.05599 6.61719 6.5792V14.1582C6.61719 14.6814 7.04134 15.1055 7.56456 15.1055C8.08777 15.1055 8.51192 14.6814 8.51192 14.1582V6.5792Z" fill="#FF6363"/>
<path d="M2.55085 8.196C2.18088 8.56597 1.58104 8.56597 1.21107 8.196C0.841101 7.82603 0.841101 7.22619 1.21107 6.85622L6.89528 1.17201C7.25394 0.813357 7.83144 0.800808 8.20533 1.14354L13.8895 6.35407C14.2752 6.70762 14.3013 7.3069 13.9477 7.69259C13.5942 8.07828 12.9949 8.10433 12.6092 7.75078L7.59367 3.15319L2.55085 8.196Z" fill="#FF6363"/>
</svg>
