<svg width="15" height="14" viewBox="0 0 15 14" fill="none" xmlns="http://www.w3.org/2000/svg">
<path d="M3.34285 2.74752C3.51226 2.74752 3.68168 2.74328 3.85109 2.74752C3.99086 2.75176 4.07133 2.7094 4.10098 2.55693C4.1518 2.30281 4.22381 2.05292 4.29157 1.80304C4.35934 1.55315 4.45675 1.31173 4.61346 1.09997C4.9184 0.693372 5.397 0.553605 5.87136 0.735726C6.12972 0.841609 6.34995 1.00679 6.56596 1.18044C6.71843 1.30326 6.8582 1.43879 7.01914 1.55738C7.2902 1.75645 7.19703 1.76492 7.45538 1.54891C7.7095 1.33715 7.93821 1.1042 8.20928 0.917846C8.42104 0.773844 8.64552 0.651018 8.90388 0.634077C9.38671 0.600194 9.73824 0.816197 9.97542 1.23126C10.1618 1.55738 10.2211 1.92586 10.3185 2.28163C10.4667 2.82376 10.327 2.72634 10.903 2.72211C11.246 2.71787 11.5891 2.65434 11.9322 2.71364C12.686 2.84493 13.0503 3.39977 12.8809 4.14942C12.8046 4.47978 12.6564 4.78473 12.5378 5.10238C12.3769 5.53439 12.343 5.40732 12.7199 5.65721C12.9613 5.81815 13.2197 5.95792 13.4442 6.14004C13.6475 6.30522 13.8296 6.49158 13.927 6.73723C14.1007 7.1777 13.999 7.56736 13.6856 7.91042C13.4865 8.12642 13.2366 8.2789 12.9825 8.41866C12.8343 8.49914 12.6945 8.59655 12.5463 8.67702C12.4319 8.74055 12.4065 8.80832 12.4573 8.93114C12.559 9.16832 12.6522 9.40974 12.7453 9.65115C12.8131 9.82904 12.8682 10.0112 12.9021 10.1975C13.0164 10.8879 12.5886 11.4427 11.8898 11.5232C11.5637 11.5613 11.246 11.5274 10.9241 11.502C10.4371 11.4639 10.4371 11.4639 10.3185 11.9382C10.238 12.2601 10.1745 12.5905 10.039 12.8954C9.82295 13.3783 9.31047 13.7594 8.64128 13.518C8.3194 13.4037 8.02716 13.2385 7.78151 12.9928C7.65868 12.87 7.51468 12.7684 7.38338 12.654C7.2775 12.5651 7.20126 12.5778 7.09961 12.6583C6.88361 12.8234 6.69302 13.0098 6.48549 13.1877C6.3076 13.3401 6.12124 13.4757 5.90101 13.5646C5.397 13.7679 4.88029 13.6154 4.57534 13.1623C4.38898 12.887 4.30428 12.5693 4.22804 12.2474C4.18145 12.0611 4.13063 11.879 4.08827 11.6926C4.06286 11.5867 4.0078 11.5528 3.90192 11.5528C3.63085 11.5444 3.36403 11.5867 3.09296 11.5909C2.93626 11.5909 2.77531 11.5994 2.6186 11.5782C1.82659 11.4808 1.42423 10.8963 1.60635 10.1213C1.69106 9.76551 1.85624 9.43939 1.97907 9.09209C2.09342 8.76596 2.12307 8.86338 1.83506 8.66431C1.57671 8.49066 1.29717 8.34243 1.05576 8.1476C0.839754 7.97819 0.649163 7.7876 0.55175 7.525C0.386571 7.09723 0.488219 6.71605 0.784694 6.37722C0.983756 6.15275 1.23364 5.9918 1.48776 5.83933C1.64871 5.74192 1.80965 5.63603 1.97483 5.53862C2.05954 5.4878 2.06801 5.43274 2.03836 5.34379C1.91977 4.9965 1.75036 4.67461 1.64871 4.32307C1.58518 4.10283 1.53859 3.87836 1.57247 3.64965C1.64871 3.14141 2.03836 2.78564 2.57625 2.71787C2.82614 2.69246 3.08449 2.70093 3.34285 2.74752ZM9.91189 5.49203C9.91189 5.20826 9.73401 4.95414 9.46718 4.85673C9.19188 4.75508 8.8954 4.83555 8.70905 5.0685C8.00598 5.94098 7.30291 6.8177 6.60408 7.69865C6.52784 7.79183 6.48549 7.81301 6.39231 7.71559C6.16783 7.47418 5.93065 7.24547 5.69771 7.01676C5.40547 6.72876 4.99464 6.72452 4.71934 7.00405C4.45251 7.27088 4.45675 7.69018 4.73205 7.97395C5.16829 8.41866 5.613 8.85914 6.05771 9.29962C6.3796 9.61727 6.81584 9.59186 7.09961 9.24032C7.98904 8.1349 8.87423 7.02523 9.75942 5.9198C9.86107 5.79274 9.91189 5.65298 9.91189 5.49203Z" fill="#456EFE"/>
</svg>
