<svg width="24" height="23" viewBox="0 0 24 23" fill="none" xmlns="http://www.w3.org/2000/svg">
<path d="M1.09082 5.90442H22.6308" stroke="#010101" stroke-width="1.5" stroke-linecap="round" stroke-linejoin="round"/>
<path d="M6.9223 16.8544H5.4523C4.23669 16.8544 3.07073 16.3721 2.21022 15.5135C1.34972 14.6549 0.864953 13.49 0.862305 12.2744V5.90435C0.864953 4.68874 1.34972 3.52383 2.21022 2.6652C3.07073 1.80657 4.23669 1.32435 5.4523 1.32435H18.3323C18.9341 1.32303 19.5303 1.4406 20.0865 1.6703C20.6428 1.9 21.1482 2.23731 21.5738 2.66287C21.9993 3.08842 22.3367 3.59385 22.5664 4.15011C22.7961 4.70638 22.9136 5.30253 22.9123 5.90435V12.2744C22.9136 12.8762 22.7961 13.4723 22.5664 14.0286C22.3367 14.5849 21.9993 15.0903 21.5738 15.5158C21.1482 15.9414 20.6428 16.2787 20.0865 16.5084C19.5303 16.7381 18.9341 16.8557 18.3323 16.8544H16.8423" stroke="#010101" stroke-width="1.5" stroke-linecap="round" stroke-linejoin="round"/>
<path d="M15.2127 13.2042L8.5127 19.8942" stroke="#010101" stroke-width="1.5" stroke-linecap="round" stroke-linejoin="round"/>
<path d="M11.8629 21.4844C14.5911 21.4844 16.8028 19.2726 16.8028 16.5444C16.8028 13.8161 14.5911 11.6044 11.8629 11.6044C9.13457 11.6044 6.92285 13.8161 6.92285 16.5444C6.92285 19.2726 9.13457 21.4844 11.8629 21.4844Z" stroke="#010101" stroke-width="1.5" stroke-linecap="round" stroke-linejoin="round"/>
</svg>
