<svg width="24" height="22" viewBox="0 0 24 22" fill="none" xmlns="http://www.w3.org/2000/svg">
<path d="M1.09082 5.61438H22.6308" stroke="#010101" stroke-width="1.5" stroke-linecap="round" stroke-linejoin="round"/>
<path d="M7.5923 16.5643H5.4523C4.23669 16.5643 3.07072 16.0821 2.21022 15.2235C1.34971 14.3648 0.864953 13.1999 0.862305 11.9843V5.61431C0.864953 4.3987 1.34971 3.23378 2.21022 2.37515C3.07072 1.51652 4.23669 1.03431 5.4523 1.03431H18.3323C18.9341 1.03299 19.5303 1.15056 20.0866 1.38026C20.6428 1.60996 21.1482 1.94727 21.5738 2.37283C21.9993 2.79838 22.3367 3.30379 22.5664 3.86006C22.7961 4.41632 22.9136 5.01249 22.9123 5.61431V11.9843C22.9136 12.5861 22.7961 13.1823 22.5664 13.7386C22.3367 14.2948 21.9993 14.8002 21.5738 15.2258C21.1482 15.6513 20.6428 15.9887 20.0866 16.2184C19.5303 16.4481 18.9341 16.5656 18.3323 16.5643H16.1423" stroke="#010101" stroke-width="1.5" stroke-linecap="round" stroke-linejoin="round"/>
<path d="M13.5408 13.8143H10.1808C8.7504 13.8143 7.59082 14.9739 7.59082 16.4043V18.6143C7.59082 20.0448 8.7504 21.2043 10.1808 21.2043H13.5408C14.9712 21.2043 16.1308 20.0448 16.1308 18.6143V16.4043C16.1308 14.9739 14.9712 13.8143 13.5408 13.8143Z" stroke="#010101" stroke-width="1.5" stroke-linecap="round" stroke-linejoin="round"/>
<path d="M14.6911 13.8143V12.9443C14.7141 12.5592 14.658 12.1735 14.5264 11.8108C14.3948 11.4481 14.1904 11.1162 13.9258 10.8354C13.6613 10.5546 13.3421 10.3309 12.9879 10.178C12.6337 10.0251 12.2519 9.94617 11.8661 9.94617C11.4803 9.94617 11.0986 10.0251 10.7444 10.178C10.3902 10.3309 10.071 10.5546 9.80643 10.8354C9.54185 11.1162 9.33748 11.4481 9.20588 11.8108C9.07427 12.1735 9.01821 12.5592 9.04113 12.9443V13.8143" stroke="#010101" stroke-width="1.5" stroke-linecap="round" stroke-linejoin="round"/>
</svg>
