<svg width="27" height="27" viewBox="0 0 27 27" fill="none" xmlns="http://www.w3.org/2000/svg">
<path d="M22.9204 8.21379V18.8277C22.9204 22.0118 21.3283 24.1346 17.6134 24.1346H9.12236C5.40751 24.1346 3.81543 22.0118 3.81543 18.8277V8.21379C3.81543 5.02963 5.40751 2.90686 9.12236 2.90686H17.6134C21.3283 2.90686 22.9204 5.02963 22.9204 8.21379Z" stroke="#010101" stroke-width="1.5" stroke-miterlimit="10" stroke-linecap="round" stroke-linejoin="round"/>
<path d="M17.083 2.90686V11.2493C17.083 11.7163 16.5311 11.9498 16.1914 11.642L13.7291 9.37073C13.5274 9.17968 13.2089 9.17968 13.0073 9.37073L10.5449 11.642C10.2053 11.9498 9.65332 11.7163 9.65332 11.2493V2.90686H17.083Z" stroke="#010101" stroke-width="1.5" stroke-miterlimit="10" stroke-linecap="round" stroke-linejoin="round"/>
<path d="M14.6943 15.6436H19.2052" stroke="#010101" stroke-width="1.5" stroke-miterlimit="10" stroke-linecap="round" stroke-linejoin="round"/>
<path d="M10.1846 19.889H19.2064" stroke="#010101" stroke-width="1.5" stroke-miterlimit="10" stroke-linecap="round" stroke-linejoin="round"/>
</svg>
