<svg width="24" height="25" viewBox="0 0 24 25" fill="none" xmlns="http://www.w3.org/2000/svg">
<path d="M5.09198 6.94443V19.3344C5.09198 22.2644 6.61198 22.9544 8.47198 20.8744C8.64953 20.6502 8.87848 20.4721 9.13945 20.3552C9.40042 20.2382 9.68572 20.1859 9.97121 20.2025C10.2567 20.2192 10.534 20.3044 10.7795 20.451C11.0251 20.5975 11.2318 20.8011 11.382 21.0444L12.442 22.5344C12.5977 22.8022 12.821 23.0243 13.0895 23.1788C13.3579 23.3332 13.6623 23.4145 13.972 23.4145C14.2817 23.4145 14.586 23.3332 14.8545 23.1788C15.123 23.0243 15.3463 22.8022 15.502 22.5344L16.502 21.0444C16.6542 20.8016 16.8625 20.599 17.1094 20.4534C17.3562 20.3079 17.6344 20.2238 17.9205 20.2081C18.2067 20.1924 18.4924 20.2456 18.7537 20.3633C19.0149 20.481 19.2441 20.6597 19.422 20.8844C21.282 22.9644 22.802 22.2744 22.802 19.3444V6.94443C22.802 2.51443 21.802 1.40442 17.872 1.40442H2.54199" stroke="#010101" stroke-width="1.5" stroke-linecap="round" stroke-linejoin="round"/>
<path d="M2.98222 1.39417C1.29222 1.39417 0.862228 2.50416 0.862228 6.93416V9.93416C0.793975 10.5914 0.984507 11.2493 1.39339 11.7683C1.80227 12.2874 2.39731 12.6267 3.05223 12.7142H5.05223V6.96417C5.09223 2.51417 4.67222 1.39417 2.98222 1.39417Z" stroke="#010101" stroke-width="1.5" stroke-linecap="round" stroke-linejoin="round"/>
<path d="M9.33301 9.39436C10.5604 8.17305 12.2215 7.48743 13.953 7.48743C15.6845 7.48743 17.3456 8.17305 18.573 9.39436" stroke="#010101" stroke-width="1.5" stroke-linecap="round" stroke-linejoin="round"/>
<path d="M11.0908 12.0844C11.4623 11.7125 11.9035 11.4175 12.3891 11.2162C12.8747 11.0149 13.3952 10.9113 13.9208 10.9113C14.4465 10.9113 14.967 11.0149 15.4526 11.2162C15.9382 11.4175 16.3793 11.7125 16.7508 12.0844" stroke="#010101" stroke-width="1.5" stroke-linecap="round" stroke-linejoin="round"/>
<path d="M12.8721 14.7342C13.1508 14.4599 13.5261 14.3063 13.9171 14.3063C14.3081 14.3063 14.6834 14.4599 14.9621 14.7342" stroke="#010101" stroke-width="1.5" stroke-linecap="round" stroke-linejoin="round"/>
</svg>
