<svg width="24" height="25" viewBox="0 0 24 25" fill="none" xmlns="http://www.w3.org/2000/svg">
<path d="M11.3818 12.5343C10.8514 12.5343 10.3427 12.3236 9.96762 11.9485C9.59255 11.5734 9.38184 11.0647 9.38184 10.5343C9.38184 10.0039 9.59255 9.49516 9.96762 9.12009C10.3427 8.74502 10.8514 8.5343 11.3818 8.5343H13.6818" stroke="#010101" stroke-width="1.5" stroke-linecap="round" stroke-linejoin="round"/>
<path d="M11.383 12.5343H12.383C12.9134 12.5343 13.4222 12.745 13.7972 13.1201C14.1723 13.4952 14.383 14.0039 14.383 14.5343C14.383 15.0647 14.1723 15.5734 13.7972 15.9485C13.4222 16.3236 12.9134 16.5343 12.383 16.5343H10.083" stroke="#010101" stroke-width="1.5" stroke-linecap="round" stroke-linejoin="round"/>
<path d="M11.8623 7.29431V8.57431" stroke="#010101" stroke-width="1.5" stroke-linecap="round" stroke-linejoin="round"/>
<path d="M11.8623 16.4943V17.7743" stroke="#010101" stroke-width="1.5" stroke-linecap="round" stroke-linejoin="round"/>
<path d="M18.0127 12.5343H18.8327" stroke="#010101" stroke-width="1.5" stroke-linecap="round" stroke-linejoin="round"/>
<path d="M4.90137 12.5343H5.72136" stroke="#010101" stroke-width="1.5" stroke-linecap="round" stroke-linejoin="round"/>
<path d="M11.8614 23.4943C17.9144 23.4943 22.8214 18.5874 22.8214 12.5343C22.8214 6.4813 17.9144 1.57434 11.8614 1.57434C5.80832 1.57434 0.901367 6.4813 0.901367 12.5343C0.901367 18.5874 5.80832 23.4943 11.8614 23.4943Z" stroke="#010101" stroke-width="1.5" stroke-linecap="round" stroke-linejoin="round"/>
<path d="M11.3818 12.5343C10.8514 12.5343 10.3427 12.3236 9.96762 11.9485C9.59255 11.5734 9.38184 11.0647 9.38184 10.5343C9.38184 10.0039 9.59255 9.49516 9.96762 9.12009C10.3427 8.74502 10.8514 8.5343 11.3818 8.5343H13.6818" stroke="#010101" stroke-width="1.5" stroke-linecap="round" stroke-linejoin="round"/>
<path d="M11.383 12.5343H12.383C12.9134 12.5343 13.4222 12.745 13.7972 13.1201C14.1723 13.4952 14.383 14.0039 14.383 14.5343C14.383 15.0647 14.1723 15.5734 13.7972 15.9485C13.4222 16.3236 12.9134 16.5343 12.383 16.5343H10.083" stroke="#010101" stroke-width="1.5" stroke-linecap="round" stroke-linejoin="round"/>
<path d="M11.8623 7.29431V8.57431" stroke="#010101" stroke-width="1.5" stroke-linecap="round" stroke-linejoin="round"/>
<path d="M11.8623 16.4943V17.7743" stroke="#010101" stroke-width="1.5" stroke-linecap="round" stroke-linejoin="round"/>
<path d="M18.0127 12.5343H18.8327" stroke="#010101" stroke-width="1.5" stroke-linecap="round" stroke-linejoin="round"/>
<path d="M4.90137 12.5343H5.72136" stroke="#010101" stroke-width="1.5" stroke-linecap="round" stroke-linejoin="round"/>
<path d="M11.8614 23.4943C17.9144 23.4943 22.8214 18.5874 22.8214 12.5343C22.8214 6.4813 17.9144 1.57434 11.8614 1.57434C5.80832 1.57434 0.901367 6.4813 0.901367 12.5343C0.901367 18.5874 5.80832 23.4943 11.8614 23.4943Z" stroke="#010101" stroke-width="1.5" stroke-linecap="round" stroke-linejoin="round"/>
</svg>
