<svg width="73" height="73" viewBox="0 0 73 73" fill="none" xmlns="http://www.w3.org/2000/svg">
<path d="M36.1944 0.570923C36.2244 0.600896 36.2543 0.645856 36.2993 0.660842C39.7162 1.605 41.2598 3.62818 41.2598 7.16501C41.2598 9.54787 41.2449 11.9457 41.2748 14.3286C41.2748 14.8231 41.1399 14.958 40.6454 14.958C38.862 14.958 38.862 14.973 38.862 13.2346C38.862 11.0765 38.862 8.93342 38.862 6.77536C38.862 4.46743 37.3483 2.96877 35.0254 2.95379C34.4709 2.95379 33.9014 2.96877 33.3469 2.95379C32.9723 2.9388 32.8674 3.08867 32.8674 3.44834C32.8674 3.95789 32.8824 4.48241 32.7774 4.99196C32.4328 6.56555 31.039 7.7345 29.4055 7.7345C23.7405 7.76447 18.0756 7.76447 12.4107 7.7345C10.4325 7.7345 8.9638 6.19088 8.91884 4.1677C8.88887 2.95379 8.88887 2.95379 7.68994 2.96877C7.03053 2.96877 6.38611 2.90883 5.7267 3.05869C4.10816 3.44834 2.96918 4.79713 2.90923 6.47563C2.89424 6.68544 2.90923 6.89525 2.90923 7.10506C2.90923 26.7225 2.90923 46.3399 2.90923 65.9573C2.90923 68.6998 4.31797 70.1086 7.04552 70.1086C16.2922 70.1086 25.5389 70.1086 34.7856 70.1086C37.4383 70.1086 38.877 68.6848 38.877 66.0472C38.877 57.2651 38.892 48.4979 38.862 39.7158C38.862 39.0714 39.0268 38.8916 39.6713 38.9215C41.2748 38.9665 41.2748 38.9365 41.2748 40.5251C41.2748 49.0225 41.2748 57.5199 41.2748 66.0172C41.2748 70.0186 38.7871 72.5064 34.8006 72.5064C25.5839 72.5064 16.3522 72.5064 7.13544 72.5064C3.59861 72.5064 1.57543 70.9628 0.616287 67.5459C0.6013 67.5009 0.55634 67.4709 0.526367 67.441C0.526367 46.8344 0.526367 26.2279 0.526367 5.63638C0.916018 4.25762 1.50049 2.99875 2.6095 2.02462C3.47872 1.27529 4.52778 0.9306 5.57684 0.570923C15.7827 0.570923 25.9885 0.570923 36.1944 0.570923ZM20.953 2.96877C20.3236 2.96877 19.6942 2.96877 19.0647 2.96877C16.6819 2.96877 14.299 2.96877 11.9162 2.96877C11.7063 2.96877 11.4066 2.81891 11.3167 3.23853C11.0319 4.63228 11.6014 5.35164 13.0102 5.35164C18.2705 5.35164 23.5307 5.35164 28.791 5.35164C30.1398 5.35164 30.4545 5.00694 30.4845 3.64317C30.4995 3.10365 30.3646 2.92381 29.7951 2.9388C26.8428 2.98376 23.9054 2.96877 20.953 2.96877Z" fill="white"/>
<path d="M44.8715 36.5387C35.9245 36.5387 26.9925 36.5387 18.0456 36.5537C17.4161 36.5537 17.2812 36.3888 17.2812 35.7744C17.3112 29.8697 17.2962 23.98 17.2812 18.0753C17.2812 17.4908 17.4461 17.3259 18.0306 17.3259C35.9395 17.3409 53.8335 17.3409 71.7424 17.3259C72.3569 17.3259 72.4618 17.5208 72.4618 18.0753C72.4468 23.9949 72.4468 29.9146 72.4618 35.8343C72.4618 36.3888 72.3269 36.5237 71.7724 36.5237C62.7954 36.5237 53.8335 36.5387 44.8715 36.5387ZM44.8865 34.1408C53.0392 34.1408 61.1769 34.1408 69.3296 34.1558C69.9141 34.1558 70.0639 34.021 70.0639 33.4215C70.0339 29.1203 70.0339 24.8042 70.0639 20.5031C70.0639 19.8587 69.8691 19.7388 69.2696 19.7388C52.9942 19.7538 36.7338 19.7538 20.4584 19.7388C19.844 19.7388 19.6641 19.8886 19.6791 20.5181C19.7091 24.7742 19.7091 29.0454 19.6791 33.3016C19.6791 33.961 19.814 34.1708 20.5183 34.1558C28.6411 34.1259 36.7638 34.1408 44.8865 34.1408Z" fill="white"/>
<path d="M20.8782 58.1193C25.8237 58.1193 30.7543 58.1343 35.6999 58.1043C36.2694 58.1043 36.5242 58.1792 36.4942 58.8536C36.4342 60.5171 36.4792 60.5171 34.8007 60.5171C25.2543 60.5171 15.7078 60.5021 6.16138 60.5321C5.44203 60.5321 5.26219 60.3373 5.29216 59.6329C5.33712 58.1193 5.29216 58.1193 6.83578 58.1193C11.5266 58.1193 16.2024 58.1193 20.8782 58.1193Z" fill="white"/>
<path d="M20.8637 68.8797C18.8855 68.8647 17.2969 67.2761 17.2969 65.2979C17.2969 63.3047 18.9304 61.6711 20.9086 61.6861C22.8569 61.7011 24.4754 63.3196 24.4754 65.2829C24.5054 67.2761 22.8719 68.8946 20.8637 68.8797ZM22.0776 65.2979C22.0776 64.6534 21.5081 64.0989 20.8637 64.1139C20.2043 64.1289 19.6947 64.6834 19.7097 65.3578C19.7247 66.0022 20.2193 66.4968 20.8787 66.4968C21.5531 66.4818 22.0926 65.9573 22.0776 65.2979Z" fill="white"/>
<path d="M41.2895 26.9473C42.0089 27.3669 42.6233 27.7416 43.2528 28.0863C43.5525 28.2511 43.5675 28.386 43.4026 28.6857C42.5034 30.4392 42.5184 30.4392 40.825 29.465C40.6151 29.3451 40.3903 29.2253 40.0606 29.0604C40.0606 29.8547 40.0457 30.5441 40.0606 31.2484C40.0756 31.6531 39.9108 31.758 39.5361 31.758C37.6628 31.8179 37.6628 31.8179 37.6628 29.9296C37.6628 29.7648 37.6628 29.5999 37.6628 29.4351C37.6628 29.0904 37.5129 29.1054 37.2731 29.2402C36.7486 29.555 36.2091 29.8397 35.6995 30.1544C35.4448 30.3193 35.2649 30.3492 35.1001 30.0345C34.8603 29.555 34.5756 29.0904 34.2908 28.6408C34.111 28.371 34.2159 28.2361 34.4557 28.1013C35.0851 27.7566 35.6995 27.3819 36.4489 26.9473C35.7445 26.5427 35.1301 26.168 34.5156 25.8383C34.2009 25.6734 34.1559 25.5236 34.3208 25.1939C35.22 23.4854 35.205 23.4854 36.8685 24.4296C37.6478 24.8792 37.6478 24.8792 37.6478 23.98C37.6478 23.95 37.6478 23.935 37.6478 23.905C37.6478 21.9867 37.6478 21.9867 39.611 22.1516C39.9407 22.1816 40.0606 22.2865 40.0606 22.6162C40.0457 23.1257 40.0756 23.6503 40.0457 24.1598C40.0157 24.6693 40.1206 24.8792 40.6451 24.5345C41.0497 24.2647 41.4994 24.0549 41.904 23.7851C42.2337 23.5603 42.4285 23.5603 42.6683 23.965C43.6274 25.5835 43.6424 25.5685 42.0389 26.4977C41.844 26.6176 41.6342 26.7525 41.2895 26.9473Z" fill="white"/>
<path d="M53.2942 26.9473C53.9536 27.3369 54.5531 27.7116 55.1675 28.0263C55.4972 28.2062 55.6471 28.341 55.3923 28.7007C55.0326 29.2103 54.8828 30.0945 54.3732 30.2144C53.9386 30.3193 53.3391 29.7198 52.7996 29.4201C52.6048 29.3152 52.395 29.1953 52.0653 29.0154C52.0653 29.7797 52.0503 30.4691 52.0653 31.1585C52.0803 31.5482 52.0053 31.728 51.5408 31.743C49.6674 31.7879 49.6674 31.8029 49.6674 29.9146C49.6674 29.6599 49.6674 29.4051 49.6674 29.0904C48.9481 29.3302 48.3936 29.7498 47.7941 30.0945C47.4494 30.2893 47.2396 30.3492 47.0448 29.9296C46.79 29.3901 46.1906 28.8206 46.2655 28.341C46.3404 27.8465 47.2096 27.6966 47.7042 27.3669C47.914 27.232 48.1388 27.1121 48.4385 26.9173C47.7941 26.5427 47.2246 26.168 46.6401 25.8683C46.2205 25.6584 46.0707 25.4636 46.4004 25.029C46.7451 24.5644 46.85 23.7552 47.3445 23.6203C47.8391 23.4854 48.3486 24.0998 48.8582 24.3696C49.083 24.4895 49.3078 24.6094 49.6524 24.8042C49.6524 24.0249 49.6824 23.3355 49.6375 22.6611C49.6225 22.2265 49.7873 22.1216 50.192 22.1066C52.0353 22.0767 52.0353 22.0617 52.0353 23.905C52.0353 24.1598 52.0353 24.4146 52.0353 24.7592C52.7247 24.5195 53.2792 24.1298 53.8487 23.7851C54.2533 23.5304 54.4781 23.5304 54.7029 23.9949C54.9427 24.5195 55.5272 25.074 55.4373 25.5086C55.3473 25.9881 54.5231 26.138 54.0435 26.4527C53.8337 26.6326 53.5939 26.7674 53.2942 26.9473Z" fill="white"/>
<path d="M29.2859 26.9472C29.9753 27.3519 30.5598 27.6966 31.1443 28.0113C31.489 28.1911 31.6538 28.371 31.3841 28.7606C31.0394 29.2552 30.8445 30.0645 30.3949 30.2293C29.9304 30.3942 29.3609 29.7347 28.8363 29.465C28.6115 29.3601 28.4317 29.1503 28.072 29.1503C28.072 29.8247 28.042 30.4991 28.087 31.1585C28.102 31.5931 27.9971 31.7579 27.5175 31.7729C25.6892 31.7879 25.6892 31.8029 25.6892 29.9595C25.6892 29.7048 25.6892 29.45 25.6892 29.1203C24.9848 29.3751 24.4153 29.7797 23.8308 30.1244C23.4861 30.3192 23.2913 30.3942 23.0815 29.9595C22.8267 29.405 22.2123 28.8505 22.2872 28.371C22.3621 27.8764 23.2314 27.7265 23.7259 27.3968C23.9357 27.262 24.1605 27.1271 24.4752 26.9323C23.7859 26.5276 23.1714 26.1679 22.557 25.8233C22.2572 25.6584 22.1673 25.5385 22.3472 25.1938C23.2763 23.4704 23.2613 23.4704 24.9548 24.4445C25.1496 24.5644 25.3595 24.6693 25.6892 24.8341C25.6892 24.0548 25.7041 23.3655 25.6892 22.6761C25.6742 22.2864 25.8091 22.1665 26.2137 22.1366C28.102 22.0616 28.102 22.0466 28.102 23.9499C28.102 24.0848 28.117 24.2347 28.102 24.3696C28.072 24.7892 28.2519 24.7892 28.5516 24.6093C29.0461 24.3096 29.5707 24.0399 30.0652 23.7251C30.38 23.5153 30.5598 23.5903 30.7097 23.905C30.9195 24.3246 31.1443 24.7292 31.414 25.1189C31.6688 25.4936 31.5489 25.6734 31.1892 25.8682C30.5598 26.1829 29.9903 26.5426 29.2859 26.9472Z" fill="white"/>
<path d="M65.2679 26.9472C65.8974 27.3219 66.4669 27.6815 67.0663 27.9813C67.4859 28.1911 67.6208 28.4009 67.3061 28.8205C66.9614 29.2851 66.8415 30.0944 66.362 30.2293C65.8824 30.3641 65.3728 29.7347 64.8483 29.4799C64.6085 29.36 64.3987 29.1502 64.024 29.1352C64.024 29.8396 64.0091 30.529 64.024 31.2334C64.039 31.623 63.9191 31.7429 63.5145 31.7579C61.6262 31.8178 61.6262 31.8328 61.6262 29.9445C61.6262 29.6897 61.6262 29.435 61.6262 29.0453C60.9368 29.435 60.3074 29.7797 59.6929 30.1543C59.3932 30.3342 59.2284 30.3492 59.0485 30.0045C58.7638 29.435 58.1643 28.8655 58.2243 28.3559C58.2842 27.8914 59.1684 27.7115 59.6779 27.3968C59.8878 27.2619 60.1126 27.127 60.4123 26.9472C59.7229 26.5426 59.1234 26.1679 58.494 25.8382C58.1793 25.6733 58.1343 25.5235 58.3142 25.1938C59.2433 23.4853 59.2284 23.4703 60.9218 24.4445C61.1167 24.5643 61.3265 24.6543 61.6412 24.8341C61.6412 24.0698 61.6712 23.4104 61.6262 22.751C61.5962 22.2864 61.7761 22.1665 62.2257 22.1515C64.024 22.1215 64.024 22.1065 64.039 23.9049C64.039 24.1747 63.9042 24.5494 64.114 24.6992C64.3538 24.8641 64.6085 24.5194 64.8483 24.3995C65.208 24.2197 65.5527 24.0398 65.8824 23.8C66.302 23.5003 66.4968 23.6352 66.7216 24.0398C67.5908 25.5834 67.6058 25.5684 66.0772 26.4526C65.8374 26.6025 65.5976 26.7524 65.2679 26.9472Z" fill="white"/>
</svg>
