<svg width="62" height="81" viewBox="0 0 62 81" fill="none" xmlns="http://www.w3.org/2000/svg">
<path d="M0.69043 40.4408C0.69043 29.2746 0.69043 18.043 0.69043 6.87675C0.69043 3.41587 2.84532 0.803876 6.11031 0.216179C6.50211 0.150879 6.95921 0.150879 7.4163 0.150879C16.8195 0.150879 26.2226 0.150879 35.6258 0.150879C39.5438 0.150879 42.2864 2.89347 42.3517 6.87675C42.3517 9.16224 42.3517 11.513 42.3517 13.7985C42.3517 14.3862 42.5476 14.5168 43.07 14.5168C47.0533 14.5168 51.1018 14.5168 55.0851 14.5168C59.0684 14.5168 61.811 17.2594 61.8763 21.2427C61.8763 25.4219 61.8763 29.6664 61.8763 33.8456C61.8763 37.7635 59.1337 40.5061 55.1504 40.5061C51.1671 40.5061 47.2492 40.5061 43.2659 40.5061C42.5476 40.5061 42.3517 40.6367 42.3517 41.4203C42.3517 52.3254 42.3517 63.2304 42.3517 74.1355C42.3517 77.3352 40.5233 79.8166 37.7154 80.6655C37.0624 80.8614 36.4094 80.9267 35.6911 80.9267C26.2879 80.9267 16.8195 80.9267 7.4163 80.9267C3.49832 80.9267 0.755729 78.1841 0.755729 74.2661C0.69043 62.9039 0.69043 51.6724 0.69043 40.4408ZM3.30242 37.8941C3.30242 46.7096 3.30242 55.5904 3.30242 64.4058C3.30242 64.9935 3.36772 65.2547 4.08602 65.2547C15.7094 65.2547 27.398 65.2547 39.0214 65.2547C39.6091 65.2547 39.7397 65.1241 39.7397 64.5364C39.7397 56.7658 39.7397 48.9951 39.7397 41.2244C39.7397 40.702 39.6744 40.5061 39.0867 40.5061C37.0624 40.5714 35.0381 40.5061 33.0138 40.5061C32.4914 40.5061 32.2955 40.702 32.0996 41.0938C31.6425 42.3345 31.1201 43.5752 30.5977 44.7506C29.9447 46.1872 28.7693 46.9708 27.2021 46.9708C25.7002 46.9708 24.5248 46.2525 23.8718 44.8159C23.2841 43.5752 22.7617 42.3345 22.174 41.0938C21.9782 40.6367 21.7169 40.3755 21.1293 40.2449C18.3867 39.5919 16.3624 37.1105 16.3624 34.3027C16.2971 29.7317 16.2971 25.226 16.3624 20.655C16.4277 17.2594 19.2356 14.5168 22.6964 14.5168C24.133 14.5168 25.5043 14.5168 26.9409 14.5168C30.9242 14.5168 34.9728 14.5168 38.9561 14.5168C39.6744 14.5168 39.8703 14.3209 39.805 13.6679C39.7397 12.9496 39.7397 12.2313 39.805 11.4477C39.8703 10.7294 39.6091 10.5335 38.8908 10.5335C27.3327 10.5335 15.7747 10.5335 4.28192 10.5335C3.56362 10.5335 3.30242 10.6641 3.36772 11.4477C3.30242 20.2632 3.30242 29.0787 3.30242 37.8941ZM39.0867 17.0635C33.6668 17.0635 28.2469 17.0635 22.827 17.0635C20.6722 17.0635 18.9744 18.6307 18.9091 20.7203C18.8438 25.226 18.8438 29.7317 18.9091 34.2374C18.9091 36.1963 20.4763 37.7635 22.3699 37.8941C23.2188 37.9594 23.6759 38.2859 23.9371 39.0042C24.5901 40.5061 25.3084 41.9427 25.9614 43.4446C26.2226 43.967 26.4838 44.4241 27.1368 44.4241C27.7898 44.4241 28.051 43.967 28.3122 43.4446C28.8999 42.008 29.4876 40.5714 30.0753 39.2001C30.5324 38.09 30.7936 37.9594 31.969 37.9594C39.6744 37.9594 47.3798 37.9594 55.0198 37.9594C57.5665 37.9594 59.199 36.3922 59.199 33.7803C59.199 29.6011 59.199 25.4219 59.199 21.2427C59.199 18.696 57.6318 17.1288 55.0198 17.0635C49.7305 17.0635 44.376 17.0635 39.0867 17.0635ZM21.5864 67.8014C15.7094 67.8014 9.8977 67.8014 4.02072 67.8014C3.49832 67.8014 3.23712 67.8667 3.30242 68.5197C3.36772 70.4134 3.30242 72.3724 3.30242 74.2661C3.30242 76.6169 4.93491 78.2494 7.351 78.2494C16.8195 78.2494 26.2879 78.2494 35.7564 78.2494C38.1725 78.2494 39.7397 76.6169 39.805 74.2008C39.805 72.3724 39.805 70.544 39.805 68.7809C39.805 68.0626 39.6744 67.8014 38.8908 67.8667C33.0791 67.8014 27.3327 67.8014 21.5864 67.8014ZM21.5211 7.98685C23.7412 7.98685 25.9614 7.98685 28.1816 7.98685C31.7731 7.98685 35.3646 7.98685 39.0214 7.98685C39.2826 7.98685 39.6744 8.18275 39.7397 7.66035C40.1315 4.91776 38.3031 2.76287 35.6258 2.76287C26.2879 2.76287 16.9501 2.82817 7.6775 2.69757C4.80431 2.69757 3.17182 4.78716 3.30242 7.07265C3.30242 7.85625 3.49832 7.98685 4.21662 7.98685C9.963 7.92155 15.7094 7.98685 21.5211 7.98685Z" fill="white"/>
<path d="M33.1449 30.0582C29.9452 30.0582 26.7455 30.0582 23.5459 30.0582C22.8929 30.0582 22.7623 29.8623 22.8276 29.2746C22.8276 27.4462 22.8276 27.4462 24.656 27.4462C30.6635 27.4462 36.7364 27.4462 42.744 27.4462C43.397 27.4462 43.6582 27.5115 43.5929 28.2298C43.5276 30.0582 43.5929 30.0582 41.7645 30.0582C38.9566 30.0582 36.0181 30.0582 33.1449 30.0582Z" fill="white"/>
<path d="M45.5518 24.8995C42.548 24.8995 39.5442 24.8995 36.5404 24.8995C35.9527 24.8995 35.7568 24.7036 35.7568 24.1159C35.7568 22.2875 35.7568 22.2875 37.5852 22.2875C43.201 22.2875 48.8821 22.2875 54.4979 22.2875C55.1509 22.2875 55.2815 22.4834 55.2815 23.0711C55.2162 24.8995 55.2815 24.8995 53.4531 24.8995C50.9064 24.8995 48.2291 24.8995 45.5518 24.8995Z" fill="white"/>
<path d="M27.9858 22.2875C29.553 22.2875 31.0549 22.2875 32.6221 22.2875C33.0792 22.2875 33.2098 22.4181 33.2098 22.8752C33.2751 24.8995 33.2751 24.8995 31.3161 24.8995C28.7041 24.8995 26.0921 24.8995 23.5454 24.8995C22.9577 24.8995 22.8271 24.7689 22.8271 24.1812C22.8271 22.2875 22.8271 22.2875 24.7208 22.2875C25.7656 22.2875 26.8757 22.2875 27.9858 22.2875Z" fill="white"/>
<path d="M50.71 30.0581C49.404 30.0581 48.0327 30.0581 46.7267 30.0581C46.0084 30.0581 46.139 29.601 46.2043 29.2745C46.4002 28.6868 45.6166 27.5767 46.6614 27.5114C49.3387 27.3808 52.0813 27.4461 54.7586 27.4461C55.1504 27.4461 55.2157 27.5767 55.281 27.9685C55.4116 30.0581 55.4116 30.0581 53.3873 30.0581C52.5384 30.0581 51.6242 30.0581 50.71 30.0581Z" fill="white"/>
</svg>
