<svg width="24" height="26" viewBox="0 0 24 26" fill="none" xmlns="http://www.w3.org/2000/svg">
<path d="M11.2989 14.4685C10.783 14.4685 10.2882 14.2716 9.9234 13.9209C9.5586 13.5703 9.35364 13.0947 9.35364 12.5989C9.35073 12.3515 9.39892 12.1062 9.49538 11.8769C9.59183 11.6476 9.73466 11.439 9.91559 11.2631C10.0965 11.0872 10.3119 10.9476 10.5494 10.8524C10.7868 10.7571 11.0416 10.708 11.2989 10.708H13.4969" stroke="#13C999" stroke-width="1.5" stroke-linecap="round" stroke-linejoin="round"/>
<path d="M11.299 14.4686H12.2881C12.804 14.4686 13.2988 14.6656 13.6636 15.0162C14.0284 15.3668 14.2333 15.8424 14.2333 16.3383C14.2333 16.8342 14.0284 17.3097 13.6636 17.6604C13.2988 18.011 12.804 18.208 12.2881 18.208H10.0352" stroke="#13C999" stroke-width="1.5" stroke-linecap="round" stroke-linejoin="round"/>
<path d="M11.7715 9.5145V10.7293" stroke="#13C999" stroke-width="1.5" stroke-linecap="round" stroke-linejoin="round"/>
<path d="M11.7715 18.1974V19.4122" stroke="#13C999" stroke-width="1.5" stroke-linecap="round" stroke-linejoin="round"/>
<path d="M21.8152 10.7083C22.2982 11.9001 22.5442 13.1685 22.5406 14.4476C22.5406 16.4951 21.9089 18.4965 20.7255 20.1989C19.542 21.9013 17.8599 23.2281 15.8919 24.0116C13.9239 24.7951 11.7583 25.0002 9.6691 24.6007C7.57987 24.2013 5.66079 23.2153 4.15453 21.7676C2.64828 20.3199 1.62253 18.4753 1.20695 16.4672C0.791379 14.4591 1.00467 12.3777 1.81985 10.4861C2.63502 8.59454 4.01548 6.97778 5.78665 5.84029C7.55781 4.7028 9.64013 4.09567 11.7703 4.09567H17.7819" stroke="#13C999" stroke-width="1.5" stroke-linecap="round" stroke-linejoin="round"/>
<path d="M15.167 6.65184L17.8046 4.11665L15.167 1.57092" stroke="#13C999" stroke-width="1.5" stroke-linecap="round" stroke-linejoin="round"/>
</svg>
