<svg width="25" height="26" viewBox="0 0 25 26" fill="none" xmlns="http://www.w3.org/2000/svg">
<path d="M5.19163 10.9254H7.2682C9.34476 10.9254 10.383 9.84869 10.383 7.69521V5.54174C10.383 3.38826 9.34476 2.31152 7.2682 2.31152H5.19163C3.11507 2.31152 2.07678 3.38826 2.07678 5.54174V7.69521C2.07678 9.84869 3.11507 10.9254 5.19163 10.9254Z" stroke="#8E949A" stroke-width="1.5" stroke-miterlimit="10" stroke-linecap="round" stroke-linejoin="round"/>
<path d="M17.6509 10.9254H19.7274C21.804 10.9254 22.8423 9.84869 22.8423 7.69521V5.54174C22.8423 3.38826 21.804 2.31152 19.7274 2.31152H17.6509C15.5743 2.31152 14.536 3.38826 14.536 5.54174V7.69521C14.536 9.84869 15.5743 10.9254 17.6509 10.9254Z" stroke="#8E949A" stroke-width="1.5" stroke-miterlimit="10" stroke-linecap="round" stroke-linejoin="round"/>
<path d="M17.6509 23.8463H19.7274C21.804 23.8463 22.8423 22.7696 22.8423 20.6161V18.4626C22.8423 16.3092 21.804 15.2324 19.7274 15.2324H17.6509C15.5743 15.2324 14.536 16.3092 14.536 18.4626V20.6161C14.536 22.7696 15.5743 23.8463 17.6509 23.8463Z" stroke="#8E949A" stroke-width="1.5" stroke-miterlimit="10" stroke-linecap="round" stroke-linejoin="round"/>
<path d="M5.19163 23.8463H7.2682C9.34476 23.8463 10.383 22.7696 10.383 20.6161V18.4626C10.383 16.3092 9.34476 15.2324 7.2682 15.2324H5.19163C3.11507 15.2324 2.07678 16.3092 2.07678 18.4626V20.6161C2.07678 22.7696 3.11507 23.8463 5.19163 23.8463Z" stroke="#8E949A" stroke-width="1.5" stroke-miterlimit="10" stroke-linecap="round" stroke-linejoin="round"/>
</svg>
