<svg width="26" height="26" viewBox="0 0 26 26" fill="none" xmlns="http://www.w3.org/2000/svg">
<path d="M6.05544 7.5424V20.6753C6.05544 23.7916 7.66658 24.523 9.6381 22.3077C9.82629 22.07 10.069 21.8812 10.3456 21.7573C10.6222 21.6333 10.9246 21.5778 11.2272 21.5955C11.5298 21.6132 11.8237 21.7035 12.084 21.8588C12.3443 22.0142 12.5634 22.2299 12.7226 22.4879L13.8461 24.0672C14.0112 24.351 14.2479 24.5865 14.5324 24.7502C14.817 24.9139 15.1396 25 15.4679 25C15.7962 25 16.1187 24.9139 16.4033 24.7502C16.6879 24.5865 16.9246 24.351 17.0896 24.0672L18.1496 22.4984C18.3101 22.2404 18.5301 22.0248 18.7913 21.8695C19.0525 21.7143 19.3471 21.624 19.6504 21.6064C19.9538 21.5887 20.2569 21.6442 20.5343 21.7681C20.8117 21.8919 21.0553 22.0806 21.2447 22.3183C23.2162 24.5336 24.8273 23.8022 24.8273 20.6859V7.5424C24.8273 2.84678 23.7674 1.67023 19.6017 1.67023H3.35254" stroke="#456EFE" stroke-width="1.5" stroke-linecap="round" stroke-linejoin="round"/>
<path d="M3.81806 1.67023C2.02672 1.67023 1.57094 2.84678 1.57094 7.5424V10.7223C1.51018 11.412 1.71748 12.0986 2.14977 12.6395C2.58206 13.1803 3.20611 13.5338 3.89225 13.6266H6.01218V7.53181C6.05457 2.84678 5.60939 1.67023 3.81806 1.67023Z" stroke="#456EFE" stroke-width="1.5" stroke-linecap="round" stroke-linejoin="round"/>
<path d="M15.351 8.72946L13.3477 12.6619H17.5875L15.3298 16.5944" stroke="#456EFE" stroke-width="1.5" stroke-linecap="round" stroke-linejoin="round"/>
</svg>
