<svg width="20" height="24" viewBox="0 0 20 24" fill="none" xmlns="http://www.w3.org/2000/svg">
<path d="M1.09082 18.8944H18.5408" stroke="#010101" stroke-width="1.5" stroke-linecap="round" stroke-linejoin="round"/>
<path d="M6.48145 22.7943H13.2114C17.9314 22.7943 18.7014 21.9043 18.7014 17.2243V6.29426C18.7014 2.50426 17.9214 0.764263 13.2014 0.804263H6.48145C1.48145 0.804263 0.981445 2.58426 0.981445 6.37426V17.3043C0.991445 21.9843 1.45145 22.8343 6.48145 22.7943Z" stroke="#010101" stroke-width="1.5" stroke-linecap="round" stroke-linejoin="round"/>
<path d="M7.41083 12.0243C7.50286 12.3832 7.71029 12.7019 8.0012 12.9313C8.2921 13.1608 8.65036 13.2883 9.02083 13.2943H10.9008C11.2907 13.2786 11.659 13.1106 11.9264 12.8264C12.1938 12.5422 12.339 12.1644 12.3308 11.7743C12.3742 11.4515 12.2958 11.1242 12.1109 10.8561C11.926 10.588 11.6479 10.3984 11.3308 10.3243L8.33082 9.26425C8.01453 9.19226 7.73658 9.00462 7.55156 8.73819C7.36653 8.47175 7.2878 8.14577 7.33082 7.82425C7.3255 7.62857 7.35879 7.43375 7.42879 7.25093C7.49879 7.06811 7.60413 6.90089 7.73879 6.7588C7.87345 6.61671 8.03479 6.50255 8.21358 6.42284C8.39238 6.34313 8.58513 6.29944 8.78082 6.29425H10.6608C11.0411 6.28861 11.4124 6.41067 11.7151 6.6409C12.0179 6.87114 12.2347 7.19626 12.3308 7.56425" stroke="#010101" stroke-width="1.5" stroke-linecap="round" stroke-linejoin="round"/>
<path d="M9.85254 5.29431V14.2943" stroke="#010101" stroke-width="1.5" stroke-linecap="round" stroke-linejoin="round"/>
</svg>
