<svg width="25" height="25" viewBox="0 0 25 25" fill="none" xmlns="http://www.w3.org/2000/svg">
<path d="M5.61152 7.2043V19.5943C5.61152 22.5243 7.13152 23.2143 8.99152 21.1243C9.16959 20.9016 9.39826 20.7247 9.65851 20.6083C9.91876 20.4919 10.2031 20.4393 10.4877 20.455C10.7724 20.4706 11.0492 20.5541 11.2951 20.6983C11.541 20.8426 11.7489 21.0435 11.9015 21.2843L12.9615 22.7743C13.1173 23.042 13.3405 23.2642 13.609 23.4187C13.8775 23.5731 14.1818 23.6544 14.4915 23.6544C14.8013 23.6544 15.1056 23.5731 15.3741 23.4187C15.6425 23.2642 15.8658 23.042 16.0215 22.7743L17.0215 21.2943C17.1729 21.0509 17.3805 20.8474 17.6269 20.701C17.8733 20.5545 18.1513 20.4694 18.4375 20.4527C18.7236 20.436 19.0096 20.4884 19.2713 20.6052C19.5331 20.7221 19.7629 20.9001 19.9415 21.1243C21.8015 23.2143 23.3215 22.5243 23.3215 19.5943V7.2043C23.3215 2.7743 22.3215 1.66431 18.3915 1.66431H3.06152" stroke="#010101" stroke-width="1.5" stroke-linecap="round" stroke-linejoin="round"/>
<path d="M3.50176 1.66431C1.81176 1.66431 1.38176 2.7743 1.38176 7.2043V10.2043C1.31351 10.8615 1.50404 11.5194 1.91292 12.0385C2.3218 12.5575 2.91684 12.8968 3.57176 12.9843H5.57176V7.2343C5.61176 2.7743 5.19176 1.66431 3.50176 1.66431Z" stroke="#010101" stroke-width="1.5" stroke-linecap="round" stroke-linejoin="round"/>
<path d="M14.501 8.82434C14.501 8.82434 11.501 11.0844 11.501 13.6944C11.6403 14.3874 12.0152 15.0108 12.5621 15.4587C13.109 15.9066 13.7941 16.1514 14.501 16.1514C15.2079 16.1514 15.893 15.9066 16.4398 15.4587C16.9867 15.0108 17.3617 14.3874 17.501 13.6944C17.511 11.0844 14.501 8.82434 14.501 8.82434Z" stroke="#010101" stroke-width="1.5" stroke-linecap="round" stroke-linejoin="round"/>
</svg>
